%TF.GenerationSoftware,KiCad,Pcbnew,9.0.0*%
%TF.CreationDate,2025-04-01T22:06:04-04:00*%
%TF.ProjectId,asl,61736c2e-6b69-4636-9164-5f7063625858,rev?*%
%TF.SameCoordinates,Original*%
%TF.FileFunction,Copper,L1,Top*%
%TF.FilePolarity,Positive*%
%FSLAX46Y46*%
G04 Gerber Fmt 4.6, Leading zero omitted, Abs format (unit mm)*
G04 Created by KiCad (PCBNEW 9.0.0) date 2025-04-01 22:06:04*
%MOMM*%
%LPD*%
G01*
G04 APERTURE LIST*
G04 Aperture macros list*
%AMRoundRect*
0 Rectangle with rounded corners*
0 $1 Rounding radius*
0 $2 $3 $4 $5 $6 $7 $8 $9 X,Y pos of 4 corners*
0 Add a 4 corners polygon primitive as box body*
4,1,4,$2,$3,$4,$5,$6,$7,$8,$9,$2,$3,0*
0 Add four circle primitives for the rounded corners*
1,1,$1+$1,$2,$3*
1,1,$1+$1,$4,$5*
1,1,$1+$1,$6,$7*
1,1,$1+$1,$8,$9*
0 Add four rect primitives between the rounded corners*
20,1,$1+$1,$2,$3,$4,$5,0*
20,1,$1+$1,$4,$5,$6,$7,0*
20,1,$1+$1,$6,$7,$8,$9,0*
20,1,$1+$1,$8,$9,$2,$3,0*%
G04 Aperture macros list end*
%TA.AperFunction,ComponentPad*%
%ADD10O,1.600000X1.600000*%
%TD*%
%TA.AperFunction,ComponentPad*%
%ADD11C,1.600000*%
%TD*%
%TA.AperFunction,ComponentPad*%
%ADD12R,3.000000X3.000000*%
%TD*%
%TA.AperFunction,ComponentPad*%
%ADD13C,3.000000*%
%TD*%
%TA.AperFunction,ComponentPad*%
%ADD14RoundRect,0.250000X1.050000X0.550000X-1.050000X0.550000X-1.050000X-0.550000X1.050000X-0.550000X0*%
%TD*%
%TA.AperFunction,ComponentPad*%
%ADD15O,2.600000X1.600000*%
%TD*%
%TA.AperFunction,ComponentPad*%
%ADD16R,1.700000X1.700000*%
%TD*%
%TA.AperFunction,ComponentPad*%
%ADD17O,1.700000X1.700000*%
%TD*%
%TA.AperFunction,Conductor*%
%ADD18C,1.000000*%
%TD*%
%TA.AperFunction,Conductor*%
%ADD19C,0.200000*%
%TD*%
G04 APERTURE END LIST*
D10*
%TO.P,R3,2*%
%TO.N,Net-(A1-I34{slash}A2)*%
X146500000Y-64780000D03*
D11*
%TO.P,R3,1*%
%TO.N,GND*%
X146500000Y-72400000D03*
%TD*%
D12*
%TO.P,J1,1,Pin_1*%
%TO.N,+3V3*%
X130500000Y-78440000D03*
D13*
%TO.P,J1,2,Pin_2*%
%TO.N,Net-(A1-DAC2{slash}A0)*%
X130500000Y-73360000D03*
%TD*%
D14*
%TO.P,A1,1,~{RESET}*%
%TO.N,unconnected-(A1-~{RESET}-Pad1)*%
X155700000Y-132400000D03*
D15*
%TO.P,A1,2,3V3*%
%TO.N,+3V3*%
X155700000Y-129860000D03*
%TO.P,A1,3,NC*%
%TO.N,unconnected-(A1-NC-Pad3)*%
X155700000Y-127320000D03*
%TO.P,A1,4,GND*%
%TO.N,GND*%
X155700000Y-124780000D03*
%TO.P,A1,5,DAC2/A0*%
%TO.N,Net-(A1-DAC2{slash}A0)*%
X155700000Y-122240000D03*
%TO.P,A1,6,DAC1/A1*%
%TO.N,Net-(A1-DAC1{slash}A1)*%
X155700000Y-119700000D03*
%TO.P,A1,7,I34/A2*%
%TO.N,Net-(A1-I34{slash}A2)*%
X155700000Y-117160000D03*
%TO.P,A1,8,I39/A3*%
%TO.N,Net-(A1-I39{slash}A3)*%
X155700000Y-114620000D03*
%TO.P,A1,9,IO36/A4*%
%TO.N,Net-(A1-IO36{slash}A4)*%
X155700000Y-112080000D03*
%TO.P,A1,10,IO4/A5*%
%TO.N,unconnected-(A1-IO4{slash}A5-Pad10)*%
X155700000Y-109540000D03*
%TO.P,A1,11,SCK/IO5*%
%TO.N,unconnected-(A1-SCK{slash}IO5-Pad11)*%
X155700000Y-107000000D03*
%TO.P,A1,12,MOSI/IO18*%
%TO.N,unconnected-(A1-MOSI{slash}IO18-Pad12)*%
X155700000Y-104460000D03*
%TO.P,A1,13,MISO/IO19*%
%TO.N,unconnected-(A1-MISO{slash}IO19-Pad13)*%
X155700000Y-101920000D03*
%TO.P,A1,14,RX/IO16*%
%TO.N,unconnected-(A1-RX{slash}IO16-Pad14)*%
X155700000Y-99380000D03*
%TO.P,A1,15,TX/IO17*%
%TO.N,unconnected-(A1-TX{slash}IO17-Pad15)*%
X155700000Y-96840000D03*
%TO.P,A1,16,IO21*%
%TO.N,unconnected-(A1-IO21-Pad16)*%
X155700000Y-94300000D03*
%TO.P,A1,17,SDA/IO23*%
%TO.N,Net-(A1-SDA{slash}IO23)*%
X135980000Y-94300000D03*
%TO.P,A1,18,SCL/IO22*%
%TO.N,Net-(A1-SCL{slash}IO22)*%
X135980000Y-96840000D03*
%TO.P,A1,19,A6/IO14*%
%TO.N,unconnected-(A1-A6{slash}IO14-Pad19)*%
X135980000Y-99380000D03*
%TO.P,A1,20,A7/IO32*%
%TO.N,unconnected-(A1-A7{slash}IO32-Pad20)*%
X135980000Y-101920000D03*
%TO.P,A1,21,A8/IO15*%
%TO.N,unconnected-(A1-A8{slash}IO15-Pad21)*%
X135980000Y-104460000D03*
%TO.P,A1,22,A9/IO33*%
%TO.N,unconnected-(A1-A9{slash}IO33-Pad22)*%
X135980000Y-107000000D03*
%TO.P,A1,23,A10/IO27*%
%TO.N,unconnected-(A1-A10{slash}IO27-Pad23)*%
X135980000Y-109540000D03*
%TO.P,A1,24,A11/IO12*%
%TO.N,unconnected-(A1-A11{slash}IO12-Pad24)*%
X135980000Y-112080000D03*
%TO.P,A1,25,A12/IO13*%
%TO.N,unconnected-(A1-A12{slash}IO13-Pad25)*%
X135980000Y-114620000D03*
%TO.P,A1,26,USB*%
%TO.N,unconnected-(A1-USB-Pad26)*%
X135980000Y-117160000D03*
%TO.P,A1,27,EN*%
%TO.N,unconnected-(A1-EN-Pad27)*%
X135980000Y-119700000D03*
%TO.P,A1,28,VBAT*%
%TO.N,unconnected-(A1-VBAT-Pad28)*%
X135980000Y-122240000D03*
%TD*%
D11*
%TO.P,R1,1*%
%TO.N,GND*%
X139500000Y-79400000D03*
D10*
%TO.P,R1,2*%
%TO.N,Net-(A1-DAC2{slash}A0)*%
X139500000Y-71780000D03*
%TD*%
D11*
%TO.P,R5,1*%
%TO.N,GND*%
X153000000Y-71900000D03*
D10*
%TO.P,R5,2*%
%TO.N,Net-(A1-IO36{slash}A4)*%
X153000000Y-79520000D03*
%TD*%
D11*
%TO.P,R2,1*%
%TO.N,GND*%
X139500000Y-66900000D03*
D10*
%TO.P,R2,2*%
%TO.N,Net-(A1-DAC1{slash}A1)*%
X139500000Y-59280000D03*
%TD*%
D12*
%TO.P,J4,1,Pin_1*%
%TO.N,+3V3*%
X161500000Y-58320000D03*
D13*
%TO.P,J4,2,Pin_2*%
%TO.N,Net-(A1-I39{slash}A3)*%
X161500000Y-63400000D03*
%TD*%
D12*
%TO.P,J2,1,Pin_1*%
%TO.N,+3V3*%
X130500000Y-63940000D03*
D13*
%TO.P,J2,2,Pin_2*%
%TO.N,Net-(A1-DAC1{slash}A1)*%
X130500000Y-58860000D03*
%TD*%
D12*
%TO.P,J3,1,Pin_1*%
%TO.N,+3V3*%
X143960000Y-50900000D03*
D13*
%TO.P,J3,2,Pin_2*%
%TO.N,Net-(A1-I34{slash}A2)*%
X149040000Y-50900000D03*
%TD*%
D16*
%TO.P,J6,1,Pin_1*%
%TO.N,unconnected-(J6-Pin_1-Pad1)*%
X139675000Y-84375000D03*
D17*
%TO.P,J6,2,Pin_2*%
%TO.N,+3V3*%
X142215000Y-84375000D03*
%TO.P,J6,3,Pin_3*%
%TO.N,GND*%
X144755000Y-84375000D03*
%TO.P,J6,4,Pin_4*%
%TO.N,Net-(A1-SCL{slash}IO22)*%
X147295000Y-84375000D03*
%TO.P,J6,5,Pin_5*%
%TO.N,Net-(A1-SDA{slash}IO23)*%
X149835000Y-84375000D03*
%TO.P,J6,6,Pin_6*%
%TO.N,unconnected-(J6-Pin_6-Pad6)*%
X152375000Y-84375000D03*
%TD*%
D12*
%TO.P,J5,1,Pin_1*%
%TO.N,+3V3*%
X161500000Y-72360000D03*
D13*
%TO.P,J5,2,Pin_2*%
%TO.N,Net-(A1-IO36{slash}A4)*%
X161500000Y-77440000D03*
%TD*%
D11*
%TO.P,R4,1*%
%TO.N,GND*%
X153500000Y-58590000D03*
D10*
%TO.P,R4,2*%
%TO.N,Net-(A1-I39{slash}A3)*%
X153500000Y-66210000D03*
%TD*%
D18*
%TO.N,+3V3*%
X144460000Y-129860000D02*
X142215000Y-127615000D01*
X164540000Y-72360000D02*
X161500000Y-72360000D01*
X156000000Y-129860000D02*
X144460000Y-129860000D01*
X167500000Y-69400000D02*
X164540000Y-72360000D01*
X143960000Y-50900000D02*
X143960000Y-45440000D01*
X139060000Y-63940000D02*
X141758000Y-61242000D01*
X141000000Y-69500000D02*
X142500000Y-71000000D01*
D19*
X143960000Y-45440000D02*
X144000000Y-45400000D01*
D18*
X141500000Y-76000000D02*
X137000000Y-76000000D01*
X161500000Y-58320000D02*
X165420000Y-58320000D01*
X130500000Y-63940000D02*
X130500000Y-70544999D01*
X130634001Y-70679000D02*
X131813001Y-69500000D01*
X142000000Y-82000000D02*
X142215000Y-82215000D01*
X137000000Y-76000000D02*
X137000000Y-80500000D01*
X161500000Y-55400000D02*
X161500000Y-58320000D01*
X151500000Y-45400000D02*
X161500000Y-55400000D01*
X165420000Y-58320000D02*
X167500000Y-60400000D01*
X141758000Y-53102000D02*
X143960000Y-50900000D01*
X138500000Y-82000000D02*
X142000000Y-82000000D01*
X142500000Y-75000000D02*
X141500000Y-76000000D01*
X127500000Y-70679000D02*
X127500000Y-75440000D01*
X141758000Y-61242000D02*
X141758000Y-53102000D01*
X130500000Y-63940000D02*
X139060000Y-63940000D01*
X142215000Y-82215000D02*
X142215000Y-84375000D01*
X144000000Y-45400000D02*
X151500000Y-45400000D01*
X137000000Y-80500000D02*
X138500000Y-82000000D01*
D19*
X130500000Y-70544999D02*
X130634001Y-70679000D01*
D18*
X142215000Y-127615000D02*
X142215000Y-84375000D01*
X142500000Y-71000000D02*
X142500000Y-75000000D01*
X167500000Y-60400000D02*
X167500000Y-69400000D01*
X130634001Y-70679000D02*
X127500000Y-70679000D01*
X127500000Y-75440000D02*
X130500000Y-78440000D01*
X131813001Y-69500000D02*
X141000000Y-69500000D01*
D19*
%TO.N,Net-(A1-SDA{slash}IO23)*%
X151319000Y-126219000D02*
X149835000Y-124735000D01*
X149835000Y-84375000D02*
X149000000Y-85210000D01*
X149000000Y-85210000D02*
X149000000Y-122065000D01*
X136080000Y-93900000D02*
X135680000Y-94300000D01*
X158000000Y-136900000D02*
X158937048Y-135962952D01*
X157968524Y-127531476D02*
X156656049Y-126219000D01*
X158937048Y-135962952D02*
X158937048Y-128500000D01*
X133700000Y-94300000D02*
X133500000Y-94500000D01*
X158000000Y-127562951D02*
X157968524Y-127531476D01*
X149000000Y-122065000D02*
X149835000Y-122900000D01*
X156656049Y-126219000D02*
X151319000Y-126219000D01*
X133500000Y-94500000D02*
X133500000Y-129400000D01*
X158937048Y-128500000D02*
X157968524Y-127531476D01*
X149835000Y-124735000D02*
X149835000Y-122900000D01*
X135680000Y-94300000D02*
X133700000Y-94300000D01*
X149835000Y-122900000D02*
X149835000Y-123302100D01*
X133500000Y-129400000D02*
X141000000Y-136900000D01*
X141000000Y-136900000D02*
X158000000Y-136900000D01*
%TO.N,Net-(A1-SCL{slash}IO22)*%
X147295000Y-84375000D02*
X148500000Y-85580000D01*
X148500000Y-126900000D02*
X150100000Y-128500000D01*
X144000000Y-130900000D02*
X140500000Y-127400000D01*
X150100000Y-128500000D02*
X158000000Y-128500000D01*
X144100000Y-135000000D02*
X144000000Y-134900000D01*
X148500000Y-85580000D02*
X148500000Y-126900000D01*
X140500000Y-98400000D02*
X138940000Y-96840000D01*
X138940000Y-96840000D02*
X135680000Y-96840000D01*
X144000000Y-134900000D02*
X144000000Y-130900000D01*
X158000000Y-128500000D02*
X158000000Y-135000000D01*
X140500000Y-127400000D02*
X140500000Y-98400000D01*
X158000000Y-135000000D02*
X144100000Y-135000000D01*
%TO.N,Net-(A1-IO36{slash}A4)*%
X159420000Y-79520000D02*
X156500000Y-79520000D01*
X159000000Y-109080000D02*
X156000000Y-112080000D01*
X156122149Y-112080000D02*
X156000000Y-112080000D01*
X156500000Y-82952810D02*
X159000000Y-85452810D01*
X155820000Y-111900000D02*
X156000000Y-112080000D01*
X161500000Y-77440000D02*
X159420000Y-79520000D01*
X159000000Y-85452810D02*
X159000000Y-109080000D01*
X156500000Y-79520000D02*
X156500000Y-82952810D01*
X156500000Y-79520000D02*
X153000000Y-79520000D01*
%TO.N,Net-(A1-I34{slash}A2)*%
X146500000Y-53440000D02*
X146500000Y-64780000D01*
X155000000Y-82500000D02*
X155000000Y-86000000D01*
X146500000Y-64780000D02*
X148248000Y-64780000D01*
X154760000Y-117160000D02*
X156000000Y-117160000D01*
X155660000Y-117500000D02*
X156000000Y-117160000D01*
X151500000Y-87000000D02*
X151500000Y-116000000D01*
X150698000Y-81900000D02*
X154400000Y-81900000D01*
X150599000Y-67131000D02*
X150599000Y-81801000D01*
X153000000Y-117500000D02*
X155660000Y-117500000D01*
X150599000Y-81801000D02*
X150698000Y-81900000D01*
X151500000Y-116000000D02*
X153000000Y-117500000D01*
X154000000Y-87000000D02*
X151500000Y-87000000D01*
X154400000Y-81900000D02*
X155000000Y-82500000D01*
X148248000Y-64780000D02*
X150599000Y-67131000D01*
X155000000Y-86000000D02*
X154000000Y-87000000D01*
X149040000Y-50900000D02*
X146500000Y-53440000D01*
%TD*%
%TA.AperFunction,Conductor*%
%TO.N,GND*%
G36*
X147032667Y-44065139D02*
G01*
X147037594Y-44065337D01*
X148013717Y-44124379D01*
X148018638Y-44124776D01*
X148991594Y-44223074D01*
X148996460Y-44223665D01*
X149964646Y-44361055D01*
X149969575Y-44361856D01*
X150469849Y-44453531D01*
X150532242Y-44484977D01*
X150567730Y-44545163D01*
X150565045Y-44614981D01*
X150525039Y-44672264D01*
X150460415Y-44698825D01*
X150447498Y-44699500D01*
X143931005Y-44699500D01*
X143795677Y-44726418D01*
X143795667Y-44726421D01*
X143668195Y-44779221D01*
X143668182Y-44779228D01*
X143553458Y-44855885D01*
X143553454Y-44855888D01*
X143513459Y-44895885D01*
X143513458Y-44895886D01*
X143476035Y-44933309D01*
X143415884Y-44993459D01*
X143339228Y-45108182D01*
X143339221Y-45108195D01*
X143286421Y-45235667D01*
X143286418Y-45235677D01*
X143259500Y-45371004D01*
X143259500Y-49075500D01*
X143239815Y-49142539D01*
X143187011Y-49188294D01*
X143135500Y-49199500D01*
X142440247Y-49199500D01*
X142381770Y-49211131D01*
X142381769Y-49211132D01*
X142315447Y-49255447D01*
X142271132Y-49321769D01*
X142271131Y-49321770D01*
X142259500Y-49380247D01*
X142259500Y-51558480D01*
X142239815Y-51625519D01*
X142223181Y-51646161D01*
X141213890Y-52655451D01*
X141213884Y-52655458D01*
X141152324Y-52747590D01*
X141152325Y-52747591D01*
X141137222Y-52770193D01*
X141084421Y-52897667D01*
X141084418Y-52897677D01*
X141057500Y-53033004D01*
X141057500Y-60900481D01*
X141037815Y-60967520D01*
X141021181Y-60988162D01*
X138806162Y-63203181D01*
X138744839Y-63236666D01*
X138718481Y-63239500D01*
X132324500Y-63239500D01*
X132257461Y-63219815D01*
X132211706Y-63167011D01*
X132200500Y-63115500D01*
X132200500Y-62420249D01*
X132200499Y-62420247D01*
X132188868Y-62361770D01*
X132188867Y-62361769D01*
X132144552Y-62295447D01*
X132078230Y-62251132D01*
X132078229Y-62251131D01*
X132019752Y-62239500D01*
X132019748Y-62239500D01*
X128980252Y-62239500D01*
X128980247Y-62239500D01*
X128921770Y-62251131D01*
X128921769Y-62251132D01*
X128855447Y-62295447D01*
X128811132Y-62361769D01*
X128811131Y-62361770D01*
X128799500Y-62420247D01*
X128799500Y-65459752D01*
X128811131Y-65518229D01*
X128811132Y-65518230D01*
X128855447Y-65584552D01*
X128921769Y-65628867D01*
X128921770Y-65628868D01*
X128980247Y-65640499D01*
X128980250Y-65640500D01*
X128980252Y-65640500D01*
X129675500Y-65640500D01*
X129742539Y-65660185D01*
X129788294Y-65712989D01*
X129799500Y-65764500D01*
X129799500Y-69854500D01*
X129779815Y-69921539D01*
X129727011Y-69967294D01*
X129675500Y-69978500D01*
X127431005Y-69978500D01*
X127295677Y-70005418D01*
X127295667Y-70005421D01*
X127168195Y-70058221D01*
X127168182Y-70058228D01*
X127053458Y-70134885D01*
X127053454Y-70134888D01*
X126955888Y-70232454D01*
X126955885Y-70232458D01*
X126879228Y-70347182D01*
X126879221Y-70347195D01*
X126826421Y-70474667D01*
X126826418Y-70474677D01*
X126799500Y-70610004D01*
X126799500Y-70610007D01*
X126799500Y-75371006D01*
X126799500Y-75508994D01*
X126799500Y-75508996D01*
X126799499Y-75508996D01*
X126826418Y-75644322D01*
X126826421Y-75644332D01*
X126879222Y-75771807D01*
X126955887Y-75886545D01*
X126955888Y-75886546D01*
X128763181Y-77693838D01*
X128796666Y-77755161D01*
X128799500Y-77781519D01*
X128799500Y-79959752D01*
X128811131Y-80018229D01*
X128811132Y-80018230D01*
X128855447Y-80084552D01*
X128921769Y-80128867D01*
X128921770Y-80128868D01*
X128980247Y-80140499D01*
X128980250Y-80140500D01*
X128980252Y-80140500D01*
X132019750Y-80140500D01*
X132019751Y-80140499D01*
X132034568Y-80137552D01*
X132078229Y-80128868D01*
X132078229Y-80128867D01*
X132078231Y-80128867D01*
X132144552Y-80084552D01*
X132188867Y-80018231D01*
X132188867Y-80018229D01*
X132188868Y-80018229D01*
X132200499Y-79959752D01*
X132200500Y-79959750D01*
X132200500Y-76920249D01*
X132200499Y-76920247D01*
X132188868Y-76861770D01*
X132188867Y-76861769D01*
X132144552Y-76795447D01*
X132078230Y-76751132D01*
X132078229Y-76751131D01*
X132019752Y-76739500D01*
X132019748Y-76739500D01*
X129841519Y-76739500D01*
X129774480Y-76719815D01*
X129753838Y-76703181D01*
X128236819Y-75186162D01*
X128203334Y-75124839D01*
X128200500Y-75098481D01*
X128200500Y-73248549D01*
X128799500Y-73248549D01*
X128799500Y-73471450D01*
X128799501Y-73471466D01*
X128828594Y-73692452D01*
X128828595Y-73692457D01*
X128828596Y-73692463D01*
X128828597Y-73692465D01*
X128886290Y-73907780D01*
X128886293Y-73907790D01*
X128949548Y-74060500D01*
X128971595Y-74113726D01*
X129083052Y-74306774D01*
X129083057Y-74306780D01*
X129083058Y-74306782D01*
X129218751Y-74483622D01*
X129218757Y-74483629D01*
X129376370Y-74641242D01*
X129376377Y-74641248D01*
X129486203Y-74725520D01*
X129553226Y-74776948D01*
X129746274Y-74888405D01*
X129952219Y-74973710D01*
X130167537Y-75031404D01*
X130388543Y-75060500D01*
X130388550Y-75060500D01*
X130611450Y-75060500D01*
X130611457Y-75060500D01*
X130832463Y-75031404D01*
X131047781Y-74973710D01*
X131253726Y-74888405D01*
X131446774Y-74776948D01*
X131623624Y-74641247D01*
X131781247Y-74483624D01*
X131916948Y-74306774D01*
X132028405Y-74113726D01*
X132113710Y-73907781D01*
X132171404Y-73692463D01*
X132200500Y-73471457D01*
X132200500Y-73248543D01*
X132171404Y-73027537D01*
X132113710Y-72812219D01*
X132028405Y-72606274D01*
X131916948Y-72413226D01*
X131830067Y-72300000D01*
X131781248Y-72236377D01*
X131781242Y-72236370D01*
X131623629Y-72078757D01*
X131623622Y-72078751D01*
X131446782Y-71943058D01*
X131446780Y-71943057D01*
X131446774Y-71943052D01*
X131335042Y-71878543D01*
X138499499Y-71878543D01*
X138537947Y-72071829D01*
X138537950Y-72071839D01*
X138613364Y-72253907D01*
X138613371Y-72253920D01*
X138722860Y-72417781D01*
X138722863Y-72417785D01*
X138862214Y-72557136D01*
X138862218Y-72557139D01*
X139026079Y-72666628D01*
X139026092Y-72666635D01*
X139208160Y-72742049D01*
X139208165Y-72742051D01*
X139208169Y-72742051D01*
X139208170Y-72742052D01*
X139401456Y-72780500D01*
X139401459Y-72780500D01*
X139598543Y-72780500D01*
X139734011Y-72753553D01*
X139791835Y-72742051D01*
X139973914Y-72666632D01*
X140137782Y-72557139D01*
X140277139Y-72417782D01*
X140386632Y-72253914D01*
X140462051Y-72071835D01*
X140476340Y-72000000D01*
X140500500Y-71878543D01*
X140500500Y-71681456D01*
X140462052Y-71488170D01*
X140462051Y-71488169D01*
X140462051Y-71488165D01*
X140422423Y-71392494D01*
X140386635Y-71306092D01*
X140386628Y-71306079D01*
X140277139Y-71142218D01*
X140277136Y-71142214D01*
X140137785Y-71002863D01*
X140137781Y-71002860D01*
X139973920Y-70893371D01*
X139973907Y-70893364D01*
X139791839Y-70817950D01*
X139791829Y-70817947D01*
X139598543Y-70779500D01*
X139598541Y-70779500D01*
X139401459Y-70779500D01*
X139401457Y-70779500D01*
X139208170Y-70817947D01*
X139208160Y-70817950D01*
X139026092Y-70893364D01*
X139026079Y-70893371D01*
X138862218Y-71002860D01*
X138862214Y-71002863D01*
X138722863Y-71142214D01*
X138722860Y-71142218D01*
X138613371Y-71306079D01*
X138613364Y-71306092D01*
X138537950Y-71488160D01*
X138537947Y-71488170D01*
X138499500Y-71681456D01*
X138499500Y-71681459D01*
X138499500Y-71878541D01*
X138499500Y-71878543D01*
X138499499Y-71878543D01*
X131335042Y-71878543D01*
X131253726Y-71831595D01*
X131253716Y-71831590D01*
X131153134Y-71789928D01*
X131153133Y-71789928D01*
X131047790Y-71746293D01*
X131047783Y-71746291D01*
X131047781Y-71746290D01*
X130832463Y-71688596D01*
X130832457Y-71688595D01*
X130832452Y-71688594D01*
X130611466Y-71659501D01*
X130611463Y-71659500D01*
X130611457Y-71659500D01*
X130388543Y-71659500D01*
X130388537Y-71659500D01*
X130388533Y-71659501D01*
X130167547Y-71688594D01*
X130167540Y-71688595D01*
X130167537Y-71688596D01*
X129954772Y-71745606D01*
X129952219Y-71746290D01*
X129952209Y-71746293D01*
X129746277Y-71831593D01*
X129746273Y-71831595D01*
X129553226Y-71943052D01*
X129553217Y-71943058D01*
X129376377Y-72078751D01*
X129376370Y-72078757D01*
X129218757Y-72236370D01*
X129218751Y-72236377D01*
X129083058Y-72413217D01*
X129083052Y-72413226D01*
X128971595Y-72606273D01*
X128971593Y-72606277D01*
X128886293Y-72812209D01*
X128886290Y-72812219D01*
X128841475Y-72979474D01*
X128828597Y-73027534D01*
X128828594Y-73027547D01*
X128799501Y-73248533D01*
X128799500Y-73248549D01*
X128200500Y-73248549D01*
X128200500Y-71503500D01*
X128220185Y-71436461D01*
X128272989Y-71390706D01*
X128324500Y-71379500D01*
X130702997Y-71379500D01*
X130794041Y-71361389D01*
X130838329Y-71352580D01*
X130915722Y-71320523D01*
X130965808Y-71299777D01*
X130965809Y-71299776D01*
X130965812Y-71299775D01*
X131080544Y-71223114D01*
X132066839Y-70236819D01*
X132128162Y-70203334D01*
X132154520Y-70200500D01*
X140658481Y-70200500D01*
X140725520Y-70220185D01*
X140746162Y-70236819D01*
X141763181Y-71253837D01*
X141796666Y-71315160D01*
X141799500Y-71341518D01*
X141799500Y-74658481D01*
X141779815Y-74725520D01*
X141763181Y-74746162D01*
X141246162Y-75263181D01*
X141184839Y-75296666D01*
X141158481Y-75299500D01*
X136931005Y-75299500D01*
X136795677Y-75326418D01*
X136795667Y-75326421D01*
X136668195Y-75379221D01*
X136668182Y-75379228D01*
X136553458Y-75455885D01*
X136553454Y-75455888D01*
X136455888Y-75553454D01*
X136455885Y-75553458D01*
X136379228Y-75668182D01*
X136379221Y-75668195D01*
X136326421Y-75795667D01*
X136326418Y-75795677D01*
X136299500Y-75931004D01*
X136299500Y-75931007D01*
X136299500Y-80431006D01*
X136299500Y-80568994D01*
X136299500Y-80568996D01*
X136299499Y-80568996D01*
X136326418Y-80704322D01*
X136326421Y-80704332D01*
X136379222Y-80831807D01*
X136455887Y-80946545D01*
X136455888Y-80946546D01*
X137955886Y-82446542D01*
X138053458Y-82544114D01*
X138053459Y-82544115D01*
X138168182Y-82620771D01*
X138168186Y-82620773D01*
X138168189Y-82620775D01*
X138242866Y-82651707D01*
X138295671Y-82673580D01*
X138322591Y-82678934D01*
X138419630Y-82698237D01*
X138431006Y-82700500D01*
X138431007Y-82700500D01*
X141390500Y-82700500D01*
X141457539Y-82720185D01*
X141503294Y-82772989D01*
X141514500Y-82824500D01*
X141514500Y-83538505D01*
X141494815Y-83605544D01*
X141478181Y-83626186D01*
X141399025Y-83705341D01*
X141399024Y-83705342D01*
X141284058Y-83877403D01*
X141204870Y-84068579D01*
X141204868Y-84068587D01*
X141164500Y-84271530D01*
X141164500Y-84478469D01*
X141204868Y-84681412D01*
X141204870Y-84681420D01*
X141270939Y-84840925D01*
X141284059Y-84872598D01*
X141399023Y-85044655D01*
X141478182Y-85123814D01*
X141511666Y-85185135D01*
X141514500Y-85211494D01*
X141514500Y-127690086D01*
X141511824Y-127690086D01*
X141500406Y-127747606D01*
X141451911Y-127797905D01*
X141383920Y-127814000D01*
X141318021Y-127790781D01*
X141302827Y-127777856D01*
X140836819Y-127311848D01*
X140803334Y-127250525D01*
X140800500Y-127224167D01*
X140800500Y-98360439D01*
X140780020Y-98284009D01*
X140780017Y-98284004D01*
X140740464Y-98215495D01*
X140740458Y-98215487D01*
X139124512Y-96599541D01*
X139124504Y-96599535D01*
X139055995Y-96559982D01*
X139055990Y-96559979D01*
X139030513Y-96553152D01*
X138979562Y-96539500D01*
X138979560Y-96539500D01*
X137521316Y-96539500D01*
X137454277Y-96519815D01*
X137408522Y-96467011D01*
X137406755Y-96462952D01*
X137366635Y-96366092D01*
X137366628Y-96366079D01*
X137257139Y-96202218D01*
X137257136Y-96202214D01*
X137117785Y-96062863D01*
X137117781Y-96062860D01*
X136953920Y-95953371D01*
X136953907Y-95953364D01*
X136771839Y-95877950D01*
X136771829Y-95877947D01*
X136578543Y-95839500D01*
X136578541Y-95839500D01*
X135381459Y-95839500D01*
X135381457Y-95839500D01*
X135188170Y-95877947D01*
X135188160Y-95877950D01*
X135006092Y-95953364D01*
X135006079Y-95953371D01*
X134842218Y-96062860D01*
X134842214Y-96062863D01*
X134702863Y-96202214D01*
X134702860Y-96202218D01*
X134593371Y-96366079D01*
X134593364Y-96366092D01*
X134517950Y-96548160D01*
X134517947Y-96548170D01*
X134479500Y-96741456D01*
X134479500Y-96741459D01*
X134479500Y-96938541D01*
X134479500Y-96938543D01*
X134479499Y-96938543D01*
X134517947Y-97131829D01*
X134517950Y-97131839D01*
X134593364Y-97313907D01*
X134593371Y-97313920D01*
X134702860Y-97477781D01*
X134702863Y-97477785D01*
X134842214Y-97617136D01*
X134842218Y-97617139D01*
X135006079Y-97726628D01*
X135006092Y-97726635D01*
X135188160Y-97802049D01*
X135188165Y-97802051D01*
X135188169Y-97802051D01*
X135188170Y-97802052D01*
X135381456Y-97840500D01*
X135381459Y-97840500D01*
X136578543Y-97840500D01*
X136708582Y-97814632D01*
X136771835Y-97802051D01*
X136953914Y-97726632D01*
X137117782Y-97617139D01*
X137257139Y-97477782D01*
X137366632Y-97313914D01*
X137406755Y-97217048D01*
X137450595Y-97162644D01*
X137516889Y-97140579D01*
X137521316Y-97140500D01*
X138764167Y-97140500D01*
X138831206Y-97160185D01*
X138851848Y-97176819D01*
X140163181Y-98488152D01*
X140196666Y-98549475D01*
X140199500Y-98575833D01*
X140199500Y-127439562D01*
X140203404Y-127454131D01*
X140219979Y-127515990D01*
X140219982Y-127515995D01*
X140251764Y-127571044D01*
X140251765Y-127571044D01*
X140259540Y-127584511D01*
X140259542Y-127584514D01*
X143663181Y-130988152D01*
X143696666Y-131049475D01*
X143699500Y-131075833D01*
X143699500Y-134939562D01*
X143713152Y-134990513D01*
X143719979Y-135015990D01*
X143733588Y-135039560D01*
X143733590Y-135039563D01*
X143759537Y-135084507D01*
X143759539Y-135084510D01*
X143759540Y-135084511D01*
X143859540Y-135184511D01*
X143915489Y-135240460D01*
X143915491Y-135240461D01*
X143915495Y-135240464D01*
X143984004Y-135280017D01*
X143984011Y-135280021D01*
X144060438Y-135300500D01*
X144060440Y-135300500D01*
X158039560Y-135300500D01*
X158039562Y-135300500D01*
X158115989Y-135280021D01*
X158184511Y-135240460D01*
X158240460Y-135184511D01*
X158280021Y-135115989D01*
X158300500Y-135039562D01*
X158300500Y-128587785D01*
X158306738Y-128566539D01*
X158308318Y-128544451D01*
X158316390Y-128533667D01*
X158320185Y-128520746D01*
X158336918Y-128506246D01*
X158350190Y-128488518D01*
X158362810Y-128483810D01*
X158372989Y-128474991D01*
X158394906Y-128471839D01*
X158415654Y-128464101D01*
X158428814Y-128466963D01*
X158442147Y-128465047D01*
X158462290Y-128474246D01*
X158483927Y-128478953D01*
X158501652Y-128492221D01*
X158505703Y-128494072D01*
X158512181Y-128500104D01*
X158600229Y-128588152D01*
X158633714Y-128649475D01*
X158636548Y-128675833D01*
X158636548Y-135787119D01*
X158616863Y-135854158D01*
X158600229Y-135874800D01*
X157911848Y-136563181D01*
X157850525Y-136596666D01*
X157824167Y-136599500D01*
X141175833Y-136599500D01*
X141108794Y-136579815D01*
X141088152Y-136563181D01*
X133836819Y-129311848D01*
X133803334Y-129250525D01*
X133800500Y-129224167D01*
X133800500Y-122338543D01*
X134479499Y-122338543D01*
X134517947Y-122531829D01*
X134517950Y-122531839D01*
X134593364Y-122713907D01*
X134593371Y-122713920D01*
X134702860Y-122877781D01*
X134702863Y-122877785D01*
X134842214Y-123017136D01*
X134842218Y-123017139D01*
X135006079Y-123126628D01*
X135006092Y-123126635D01*
X135188160Y-123202049D01*
X135188165Y-123202051D01*
X135188169Y-123202051D01*
X135188170Y-123202052D01*
X135381456Y-123240500D01*
X135381459Y-123240500D01*
X136578543Y-123240500D01*
X136708582Y-123214632D01*
X136771835Y-123202051D01*
X136953914Y-123126632D01*
X137117782Y-123017139D01*
X137257139Y-122877782D01*
X137366632Y-122713914D01*
X137442051Y-122531835D01*
X137480500Y-122338541D01*
X137480500Y-122141459D01*
X137480500Y-122141456D01*
X137442052Y-121948170D01*
X137442051Y-121948169D01*
X137442051Y-121948165D01*
X137428531Y-121915525D01*
X137366635Y-121766092D01*
X137366628Y-121766079D01*
X137257139Y-121602218D01*
X137257136Y-121602214D01*
X137117785Y-121462863D01*
X137117781Y-121462860D01*
X136953920Y-121353371D01*
X136953907Y-121353364D01*
X136771839Y-121277950D01*
X136771829Y-121277947D01*
X136578543Y-121239500D01*
X136578541Y-121239500D01*
X135381459Y-121239500D01*
X135381457Y-121239500D01*
X135188170Y-121277947D01*
X135188160Y-121277950D01*
X135006092Y-121353364D01*
X135006079Y-121353371D01*
X134842218Y-121462860D01*
X134842214Y-121462863D01*
X134702863Y-121602214D01*
X134702860Y-121602218D01*
X134593371Y-121766079D01*
X134593364Y-121766092D01*
X134517950Y-121948160D01*
X134517947Y-121948170D01*
X134479500Y-122141456D01*
X134479500Y-122141459D01*
X134479500Y-122338541D01*
X134479500Y-122338543D01*
X134479499Y-122338543D01*
X133800500Y-122338543D01*
X133800500Y-119798543D01*
X134479499Y-119798543D01*
X134517947Y-119991829D01*
X134517950Y-119991839D01*
X134593364Y-120173907D01*
X134593371Y-120173920D01*
X134702860Y-120337781D01*
X134702863Y-120337785D01*
X134842214Y-120477136D01*
X134842218Y-120477139D01*
X135006079Y-120586628D01*
X135006092Y-120586635D01*
X135188160Y-120662049D01*
X135188165Y-120662051D01*
X135188169Y-120662051D01*
X135188170Y-120662052D01*
X135381456Y-120700500D01*
X135381459Y-120700500D01*
X136578543Y-120700500D01*
X136708582Y-120674632D01*
X136771835Y-120662051D01*
X136953914Y-120586632D01*
X137117782Y-120477139D01*
X137257139Y-120337782D01*
X137366632Y-120173914D01*
X137442051Y-119991835D01*
X137480500Y-119798541D01*
X137480500Y-119601459D01*
X137480500Y-119601456D01*
X137442052Y-119408170D01*
X137442051Y-119408169D01*
X137442051Y-119408165D01*
X137442049Y-119408160D01*
X137366635Y-119226092D01*
X137366628Y-119226079D01*
X137257139Y-119062218D01*
X137257136Y-119062214D01*
X137117785Y-118922863D01*
X137117781Y-118922860D01*
X136953920Y-118813371D01*
X136953907Y-118813364D01*
X136771839Y-118737950D01*
X136771829Y-118737947D01*
X136578543Y-118699500D01*
X136578541Y-118699500D01*
X135381459Y-118699500D01*
X135381457Y-118699500D01*
X135188170Y-118737947D01*
X135188160Y-118737950D01*
X135006092Y-118813364D01*
X135006079Y-118813371D01*
X134842218Y-118922860D01*
X134842214Y-118922863D01*
X134702863Y-119062214D01*
X134702860Y-119062218D01*
X134593371Y-119226079D01*
X134593364Y-119226092D01*
X134517950Y-119408160D01*
X134517947Y-119408170D01*
X134479500Y-119601456D01*
X134479500Y-119601459D01*
X134479500Y-119798541D01*
X134479500Y-119798543D01*
X134479499Y-119798543D01*
X133800500Y-119798543D01*
X133800500Y-117258543D01*
X134479499Y-117258543D01*
X134517947Y-117451829D01*
X134517950Y-117451839D01*
X134593364Y-117633907D01*
X134593371Y-117633920D01*
X134702860Y-117797781D01*
X134702863Y-117797785D01*
X134842214Y-117937136D01*
X134842218Y-117937139D01*
X135006079Y-118046628D01*
X135006092Y-118046635D01*
X135188160Y-118122049D01*
X135188165Y-118122051D01*
X135188169Y-118122051D01*
X135188170Y-118122052D01*
X135381456Y-118160500D01*
X135381459Y-118160500D01*
X136578543Y-118160500D01*
X136708582Y-118134632D01*
X136771835Y-118122051D01*
X136953914Y-118046632D01*
X137117782Y-117937139D01*
X137257139Y-117797782D01*
X137366632Y-117633914D01*
X137442051Y-117451835D01*
X137480500Y-117258541D01*
X137480500Y-117061459D01*
X137480500Y-117061456D01*
X137442052Y-116868170D01*
X137442051Y-116868169D01*
X137442051Y-116868165D01*
X137442049Y-116868160D01*
X137366635Y-116686092D01*
X137366628Y-116686079D01*
X137257139Y-116522218D01*
X137257136Y-116522214D01*
X137117785Y-116382863D01*
X137117781Y-116382860D01*
X136953920Y-116273371D01*
X136953907Y-116273364D01*
X136771839Y-116197950D01*
X136771829Y-116197947D01*
X136578543Y-116159500D01*
X136578541Y-116159500D01*
X135381459Y-116159500D01*
X135381457Y-116159500D01*
X135188170Y-116197947D01*
X135188160Y-116197950D01*
X135006092Y-116273364D01*
X135006079Y-116273371D01*
X134842218Y-116382860D01*
X134842214Y-116382863D01*
X134702863Y-116522214D01*
X134702860Y-116522218D01*
X134593371Y-116686079D01*
X134593364Y-116686092D01*
X134517950Y-116868160D01*
X134517947Y-116868170D01*
X134479500Y-117061456D01*
X134479500Y-117061459D01*
X134479500Y-117258541D01*
X134479500Y-117258543D01*
X134479499Y-117258543D01*
X133800500Y-117258543D01*
X133800500Y-114718543D01*
X134479499Y-114718543D01*
X134517947Y-114911829D01*
X134517950Y-114911839D01*
X134593364Y-115093907D01*
X134593371Y-115093920D01*
X134702860Y-115257781D01*
X134702863Y-115257785D01*
X134842214Y-115397136D01*
X134842218Y-115397139D01*
X135006079Y-115506628D01*
X135006092Y-115506635D01*
X135188160Y-115582049D01*
X135188165Y-115582051D01*
X135188169Y-115582051D01*
X135188170Y-115582052D01*
X135381456Y-115620500D01*
X135381459Y-115620500D01*
X136578543Y-115620500D01*
X136708582Y-115594632D01*
X136771835Y-115582051D01*
X136953914Y-115506632D01*
X137117782Y-115397139D01*
X137257139Y-115257782D01*
X137366632Y-115093914D01*
X137442051Y-114911835D01*
X137480500Y-114718541D01*
X137480500Y-114521459D01*
X137480500Y-114521456D01*
X137442052Y-114328170D01*
X137442051Y-114328169D01*
X137442051Y-114328165D01*
X137442049Y-114328160D01*
X137366635Y-114146092D01*
X137366628Y-114146079D01*
X137257139Y-113982218D01*
X137257136Y-113982214D01*
X137117785Y-113842863D01*
X137117781Y-113842860D01*
X136953920Y-113733371D01*
X136953907Y-113733364D01*
X136771839Y-113657950D01*
X136771829Y-113657947D01*
X136578543Y-113619500D01*
X136578541Y-113619500D01*
X135381459Y-113619500D01*
X135381457Y-113619500D01*
X135188170Y-113657947D01*
X135188160Y-113657950D01*
X135006092Y-113733364D01*
X135006079Y-113733371D01*
X134842218Y-113842860D01*
X134842214Y-113842863D01*
X134702863Y-113982214D01*
X134702860Y-113982218D01*
X134593371Y-114146079D01*
X134593364Y-114146092D01*
X134517950Y-114328160D01*
X134517947Y-114328170D01*
X134479500Y-114521456D01*
X134479500Y-114521459D01*
X134479500Y-114718541D01*
X134479500Y-114718543D01*
X134479499Y-114718543D01*
X133800500Y-114718543D01*
X133800500Y-112178543D01*
X134479499Y-112178543D01*
X134517947Y-112371829D01*
X134517950Y-112371839D01*
X134593364Y-112553907D01*
X134593371Y-112553920D01*
X134702860Y-112717781D01*
X134702863Y-112717785D01*
X134842214Y-112857136D01*
X134842218Y-112857139D01*
X135006079Y-112966628D01*
X135006092Y-112966635D01*
X135188160Y-113042049D01*
X135188165Y-113042051D01*
X135188169Y-113042051D01*
X135188170Y-113042052D01*
X135381456Y-113080500D01*
X135381459Y-113080500D01*
X136578543Y-113080500D01*
X136708582Y-113054632D01*
X136771835Y-113042051D01*
X136953914Y-112966632D01*
X137117782Y-112857139D01*
X137257139Y-112717782D01*
X137366632Y-112553914D01*
X137442051Y-112371835D01*
X137480500Y-112178541D01*
X137480500Y-111981459D01*
X137480500Y-111981456D01*
X137442052Y-111788170D01*
X137442051Y-111788169D01*
X137442051Y-111788165D01*
X137366635Y-111606093D01*
X137366635Y-111606092D01*
X137366628Y-111606079D01*
X137257139Y-111442218D01*
X137257136Y-111442214D01*
X137117785Y-111302863D01*
X137117781Y-111302860D01*
X136953920Y-111193371D01*
X136953907Y-111193364D01*
X136771839Y-111117950D01*
X136771829Y-111117947D01*
X136578543Y-111079500D01*
X136578541Y-111079500D01*
X135381459Y-111079500D01*
X135381457Y-111079500D01*
X135188170Y-111117947D01*
X135188160Y-111117950D01*
X135006092Y-111193364D01*
X135006079Y-111193371D01*
X134842218Y-111302860D01*
X134842214Y-111302863D01*
X134702863Y-111442214D01*
X134702860Y-111442218D01*
X134593371Y-111606079D01*
X134593364Y-111606092D01*
X134517950Y-111788160D01*
X134517947Y-111788170D01*
X134479500Y-111981456D01*
X134479500Y-111981459D01*
X134479500Y-112178541D01*
X134479500Y-112178543D01*
X134479499Y-112178543D01*
X133800500Y-112178543D01*
X133800500Y-109638543D01*
X134479499Y-109638543D01*
X134517947Y-109831829D01*
X134517950Y-109831839D01*
X134593364Y-110013907D01*
X134593371Y-110013920D01*
X134702860Y-110177781D01*
X134702863Y-110177785D01*
X134842214Y-110317136D01*
X134842218Y-110317139D01*
X135006079Y-110426628D01*
X135006092Y-110426635D01*
X135188160Y-110502049D01*
X135188165Y-110502051D01*
X135188169Y-110502051D01*
X135188170Y-110502052D01*
X135381456Y-110540500D01*
X135381459Y-110540500D01*
X136578543Y-110540500D01*
X136708582Y-110514632D01*
X136771835Y-110502051D01*
X136953914Y-110426632D01*
X137117782Y-110317139D01*
X137257139Y-110177782D01*
X137366632Y-110013914D01*
X137442051Y-109831835D01*
X137480500Y-109638541D01*
X137480500Y-109441459D01*
X137480500Y-109441456D01*
X137442052Y-109248170D01*
X137442051Y-109248169D01*
X137442051Y-109248165D01*
X137420439Y-109195988D01*
X137366635Y-109066092D01*
X137366628Y-109066079D01*
X137257139Y-108902218D01*
X137257136Y-108902214D01*
X137117785Y-108762863D01*
X137117781Y-108762860D01*
X136953920Y-108653371D01*
X136953907Y-108653364D01*
X136771839Y-108577950D01*
X136771829Y-108577947D01*
X136578543Y-108539500D01*
X136578541Y-108539500D01*
X135381459Y-108539500D01*
X135381457Y-108539500D01*
X135188170Y-108577947D01*
X135188160Y-108577950D01*
X135006092Y-108653364D01*
X135006079Y-108653371D01*
X134842218Y-108762860D01*
X134842214Y-108762863D01*
X134702863Y-108902214D01*
X134702860Y-108902218D01*
X134593371Y-109066079D01*
X134593364Y-109066092D01*
X134517950Y-109248160D01*
X134517947Y-109248170D01*
X134479500Y-109441456D01*
X134479500Y-109441459D01*
X134479500Y-109638541D01*
X134479500Y-109638543D01*
X134479499Y-109638543D01*
X133800500Y-109638543D01*
X133800500Y-107098543D01*
X134479499Y-107098543D01*
X134517947Y-107291829D01*
X134517950Y-107291839D01*
X134593364Y-107473907D01*
X134593371Y-107473920D01*
X134702860Y-107637781D01*
X134702863Y-107637785D01*
X134842214Y-107777136D01*
X134842218Y-107777139D01*
X135006079Y-107886628D01*
X135006092Y-107886635D01*
X135188160Y-107962049D01*
X135188165Y-107962051D01*
X135188169Y-107962051D01*
X135188170Y-107962052D01*
X135381456Y-108000500D01*
X135381459Y-108000500D01*
X136578543Y-108000500D01*
X136708582Y-107974632D01*
X136771835Y-107962051D01*
X136953914Y-107886632D01*
X137117782Y-107777139D01*
X137257139Y-107637782D01*
X137366632Y-107473914D01*
X137442051Y-107291835D01*
X137480500Y-107098541D01*
X137480500Y-106901459D01*
X137480500Y-106901456D01*
X137442052Y-106708170D01*
X137442051Y-106708169D01*
X137442051Y-106708165D01*
X137442049Y-106708160D01*
X137366635Y-106526092D01*
X137366628Y-106526079D01*
X137257139Y-106362218D01*
X137257136Y-106362214D01*
X137117785Y-106222863D01*
X137117781Y-106222860D01*
X136953920Y-106113371D01*
X136953907Y-106113364D01*
X136771839Y-106037950D01*
X136771829Y-106037947D01*
X136578543Y-105999500D01*
X136578541Y-105999500D01*
X135381459Y-105999500D01*
X135381457Y-105999500D01*
X135188170Y-106037947D01*
X135188160Y-106037950D01*
X135006092Y-106113364D01*
X135006079Y-106113371D01*
X134842218Y-106222860D01*
X134842214Y-106222863D01*
X134702863Y-106362214D01*
X134702860Y-106362218D01*
X134593371Y-106526079D01*
X134593364Y-106526092D01*
X134517950Y-106708160D01*
X134517947Y-106708170D01*
X134479500Y-106901456D01*
X134479500Y-106901459D01*
X134479500Y-107098541D01*
X134479500Y-107098543D01*
X134479499Y-107098543D01*
X133800500Y-107098543D01*
X133800500Y-104558543D01*
X134479499Y-104558543D01*
X134517947Y-104751829D01*
X134517950Y-104751839D01*
X134593364Y-104933907D01*
X134593371Y-104933920D01*
X134702860Y-105097781D01*
X134702863Y-105097785D01*
X134842214Y-105237136D01*
X134842218Y-105237139D01*
X135006079Y-105346628D01*
X135006092Y-105346635D01*
X135188160Y-105422049D01*
X135188165Y-105422051D01*
X135188169Y-105422051D01*
X135188170Y-105422052D01*
X135381456Y-105460500D01*
X135381459Y-105460500D01*
X136578543Y-105460500D01*
X136708582Y-105434632D01*
X136771835Y-105422051D01*
X136953914Y-105346632D01*
X137117782Y-105237139D01*
X137257139Y-105097782D01*
X137366632Y-104933914D01*
X137442051Y-104751835D01*
X137480500Y-104558541D01*
X137480500Y-104361459D01*
X137480500Y-104361456D01*
X137442052Y-104168170D01*
X137442051Y-104168169D01*
X137442051Y-104168165D01*
X137442049Y-104168160D01*
X137366635Y-103986092D01*
X137366628Y-103986079D01*
X137257139Y-103822218D01*
X137257136Y-103822214D01*
X137117785Y-103682863D01*
X137117781Y-103682860D01*
X136953920Y-103573371D01*
X136953907Y-103573364D01*
X136771839Y-103497950D01*
X136771829Y-103497947D01*
X136578543Y-103459500D01*
X136578541Y-103459500D01*
X135381459Y-103459500D01*
X135381457Y-103459500D01*
X135188170Y-103497947D01*
X135188160Y-103497950D01*
X135006092Y-103573364D01*
X135006079Y-103573371D01*
X134842218Y-103682860D01*
X134842214Y-103682863D01*
X134702863Y-103822214D01*
X134702860Y-103822218D01*
X134593371Y-103986079D01*
X134593364Y-103986092D01*
X134517950Y-104168160D01*
X134517947Y-104168170D01*
X134479500Y-104361456D01*
X134479500Y-104361459D01*
X134479500Y-104558541D01*
X134479500Y-104558543D01*
X134479499Y-104558543D01*
X133800500Y-104558543D01*
X133800500Y-102018543D01*
X134479499Y-102018543D01*
X134517947Y-102211829D01*
X134517950Y-102211839D01*
X134593364Y-102393907D01*
X134593371Y-102393920D01*
X134702860Y-102557781D01*
X134702863Y-102557785D01*
X134842214Y-102697136D01*
X134842218Y-102697139D01*
X135006079Y-102806628D01*
X135006092Y-102806635D01*
X135188160Y-102882049D01*
X135188165Y-102882051D01*
X135188169Y-102882051D01*
X135188170Y-102882052D01*
X135381456Y-102920500D01*
X135381459Y-102920500D01*
X136578543Y-102920500D01*
X136708582Y-102894632D01*
X136771835Y-102882051D01*
X136953914Y-102806632D01*
X137117782Y-102697139D01*
X137257139Y-102557782D01*
X137366632Y-102393914D01*
X137442051Y-102211835D01*
X137480500Y-102018541D01*
X137480500Y-101821459D01*
X137480500Y-101821456D01*
X137442052Y-101628170D01*
X137442051Y-101628169D01*
X137442051Y-101628165D01*
X137442049Y-101628160D01*
X137366635Y-101446092D01*
X137366628Y-101446079D01*
X137257139Y-101282218D01*
X137257136Y-101282214D01*
X137117785Y-101142863D01*
X137117781Y-101142860D01*
X136953920Y-101033371D01*
X136953907Y-101033364D01*
X136771839Y-100957950D01*
X136771829Y-100957947D01*
X136578543Y-100919500D01*
X136578541Y-100919500D01*
X135381459Y-100919500D01*
X135381457Y-100919500D01*
X135188170Y-100957947D01*
X135188160Y-100957950D01*
X135006092Y-101033364D01*
X135006079Y-101033371D01*
X134842218Y-101142860D01*
X134842214Y-101142863D01*
X134702863Y-101282214D01*
X134702860Y-101282218D01*
X134593371Y-101446079D01*
X134593364Y-101446092D01*
X134517950Y-101628160D01*
X134517947Y-101628170D01*
X134479500Y-101821456D01*
X134479500Y-101821459D01*
X134479500Y-102018541D01*
X134479500Y-102018543D01*
X134479499Y-102018543D01*
X133800500Y-102018543D01*
X133800500Y-99478543D01*
X134479499Y-99478543D01*
X134517947Y-99671829D01*
X134517950Y-99671839D01*
X134593364Y-99853907D01*
X134593371Y-99853920D01*
X134702860Y-100017781D01*
X134702863Y-100017785D01*
X134842214Y-100157136D01*
X134842218Y-100157139D01*
X135006079Y-100266628D01*
X135006092Y-100266635D01*
X135188160Y-100342049D01*
X135188165Y-100342051D01*
X135188169Y-100342051D01*
X135188170Y-100342052D01*
X135381456Y-100380500D01*
X135381459Y-100380500D01*
X136578543Y-100380500D01*
X136708582Y-100354632D01*
X136771835Y-100342051D01*
X136953914Y-100266632D01*
X137117782Y-100157139D01*
X137257139Y-100017782D01*
X137366632Y-99853914D01*
X137442051Y-99671835D01*
X137480500Y-99478541D01*
X137480500Y-99281459D01*
X137480500Y-99281456D01*
X137442052Y-99088170D01*
X137442051Y-99088169D01*
X137442051Y-99088165D01*
X137442049Y-99088160D01*
X137366635Y-98906092D01*
X137366628Y-98906079D01*
X137257139Y-98742218D01*
X137257136Y-98742214D01*
X137117785Y-98602863D01*
X137117781Y-98602860D01*
X136953920Y-98493371D01*
X136953907Y-98493364D01*
X136771839Y-98417950D01*
X136771829Y-98417947D01*
X136578543Y-98379500D01*
X136578541Y-98379500D01*
X135381459Y-98379500D01*
X135381457Y-98379500D01*
X135188170Y-98417947D01*
X135188160Y-98417950D01*
X135006092Y-98493364D01*
X135006079Y-98493371D01*
X134842218Y-98602860D01*
X134842214Y-98602863D01*
X134702863Y-98742214D01*
X134702860Y-98742218D01*
X134593371Y-98906079D01*
X134593364Y-98906092D01*
X134517950Y-99088160D01*
X134517947Y-99088170D01*
X134479500Y-99281456D01*
X134479500Y-99281459D01*
X134479500Y-99478541D01*
X134479500Y-99478543D01*
X134479499Y-99478543D01*
X133800500Y-99478543D01*
X133800500Y-94724500D01*
X133820185Y-94657461D01*
X133872989Y-94611706D01*
X133924500Y-94600500D01*
X134438684Y-94600500D01*
X134505723Y-94620185D01*
X134551478Y-94672989D01*
X134553245Y-94677048D01*
X134593364Y-94773907D01*
X134593371Y-94773920D01*
X134702860Y-94937781D01*
X134702863Y-94937785D01*
X134842214Y-95077136D01*
X134842218Y-95077139D01*
X135006079Y-95186628D01*
X135006092Y-95186635D01*
X135188160Y-95262049D01*
X135188165Y-95262051D01*
X135188169Y-95262051D01*
X135188170Y-95262052D01*
X135381456Y-95300500D01*
X135381459Y-95300500D01*
X136578543Y-95300500D01*
X136708582Y-95274632D01*
X136771835Y-95262051D01*
X136953914Y-95186632D01*
X137117782Y-95077139D01*
X137257139Y-94937782D01*
X137366632Y-94773914D01*
X137442051Y-94591835D01*
X137480500Y-94398541D01*
X137480500Y-94201459D01*
X137480500Y-94201456D01*
X137442052Y-94008170D01*
X137442051Y-94008169D01*
X137442051Y-94008165D01*
X137406755Y-93922952D01*
X137366635Y-93826092D01*
X137366628Y-93826079D01*
X137257139Y-93662218D01*
X137257136Y-93662214D01*
X137117785Y-93522863D01*
X137117781Y-93522860D01*
X136953920Y-93413371D01*
X136953907Y-93413364D01*
X136771839Y-93337950D01*
X136771829Y-93337947D01*
X136578543Y-93299500D01*
X136578541Y-93299500D01*
X135381459Y-93299500D01*
X135381457Y-93299500D01*
X135188170Y-93337947D01*
X135188160Y-93337950D01*
X135006092Y-93413364D01*
X135006079Y-93413371D01*
X134842218Y-93522860D01*
X134842214Y-93522863D01*
X134702863Y-93662214D01*
X134702860Y-93662218D01*
X134593371Y-93826079D01*
X134593364Y-93826092D01*
X134553245Y-93922952D01*
X134509405Y-93977356D01*
X134443111Y-93999421D01*
X134438684Y-93999500D01*
X133660438Y-93999500D01*
X133584010Y-94019978D01*
X133515489Y-94059540D01*
X133515486Y-94059542D01*
X133259541Y-94315487D01*
X133259535Y-94315495D01*
X133219982Y-94384004D01*
X133219979Y-94384009D01*
X133216085Y-94398543D01*
X133199500Y-94460438D01*
X133199500Y-129439562D01*
X133219979Y-129515989D01*
X133227021Y-129528186D01*
X133227022Y-129528189D01*
X133227023Y-129528189D01*
X133259540Y-129584511D01*
X140815489Y-137140460D01*
X140874829Y-137174720D01*
X140884008Y-137180020D01*
X140884012Y-137180022D01*
X140960438Y-137200500D01*
X140960440Y-137200500D01*
X158039560Y-137200500D01*
X158039562Y-137200500D01*
X158115989Y-137180021D01*
X158184511Y-137140460D01*
X158240460Y-137084511D01*
X159177508Y-136147463D01*
X159217069Y-136078941D01*
X159237548Y-136002514D01*
X159237548Y-128460438D01*
X159217070Y-128384012D01*
X159177508Y-128315489D01*
X158240459Y-127378440D01*
X158240457Y-127378436D01*
X158182173Y-127320154D01*
X158153035Y-127291016D01*
X157544237Y-126682218D01*
X156910181Y-126048161D01*
X156876696Y-125986838D01*
X156881680Y-125917146D01*
X156923552Y-125861213D01*
X156924977Y-125860162D01*
X157046889Y-125771587D01*
X157046895Y-125771582D01*
X157191582Y-125626895D01*
X157191582Y-125626894D01*
X157311859Y-125461349D01*
X157404755Y-125279029D01*
X157467990Y-125084413D01*
X157476609Y-125030000D01*
X156433012Y-125030000D01*
X156465925Y-124972993D01*
X156500000Y-124845826D01*
X156500000Y-124714174D01*
X156465925Y-124587007D01*
X156433012Y-124530000D01*
X157476609Y-124530000D01*
X157467990Y-124475586D01*
X157404755Y-124280970D01*
X157311859Y-124098650D01*
X157191582Y-123933105D01*
X157191582Y-123933104D01*
X157046895Y-123788417D01*
X156881349Y-123668140D01*
X156699031Y-123575244D01*
X156504417Y-123512009D01*
X156315731Y-123482124D01*
X156252596Y-123452194D01*
X156215665Y-123392883D01*
X156216663Y-123323020D01*
X156255273Y-123264788D01*
X156310938Y-123238034D01*
X156491835Y-123202051D01*
X156673914Y-123126632D01*
X156837782Y-123017139D01*
X156977139Y-122877782D01*
X157086632Y-122713914D01*
X157162051Y-122531835D01*
X157200500Y-122338541D01*
X157200500Y-122141459D01*
X157200500Y-122141456D01*
X157162052Y-121948170D01*
X157162051Y-121948169D01*
X157162051Y-121948165D01*
X157148531Y-121915525D01*
X157086635Y-121766092D01*
X157086628Y-121766079D01*
X156977139Y-121602218D01*
X156977136Y-121602214D01*
X156837785Y-121462863D01*
X156837781Y-121462860D01*
X156673920Y-121353371D01*
X156673907Y-121353364D01*
X156491839Y-121277950D01*
X156491829Y-121277947D01*
X156298543Y-121239500D01*
X156298541Y-121239500D01*
X155101459Y-121239500D01*
X155101457Y-121239500D01*
X154908170Y-121277947D01*
X154908160Y-121277950D01*
X154726092Y-121353364D01*
X154726079Y-121353371D01*
X154562218Y-121462860D01*
X154562214Y-121462863D01*
X154422863Y-121602214D01*
X154422860Y-121602218D01*
X154313371Y-121766079D01*
X154313364Y-121766092D01*
X154237950Y-121948160D01*
X154237947Y-121948170D01*
X154199500Y-122141456D01*
X154199500Y-122141459D01*
X154199500Y-122338541D01*
X154199500Y-122338543D01*
X154199499Y-122338543D01*
X154237947Y-122531829D01*
X154237950Y-122531839D01*
X154313364Y-122713907D01*
X154313371Y-122713920D01*
X154422860Y-122877781D01*
X154422863Y-122877785D01*
X154562214Y-123017136D01*
X154562218Y-123017139D01*
X154726079Y-123126628D01*
X154726092Y-123126635D01*
X154908160Y-123202049D01*
X154908165Y-123202051D01*
X155040674Y-123228409D01*
X155089061Y-123238034D01*
X155150972Y-123270419D01*
X155185546Y-123331134D01*
X155181807Y-123400904D01*
X155140940Y-123457576D01*
X155084269Y-123482124D01*
X154895581Y-123512010D01*
X154700968Y-123575244D01*
X154518650Y-123668140D01*
X154353105Y-123788417D01*
X154353104Y-123788417D01*
X154208417Y-123933104D01*
X154208417Y-123933105D01*
X154088140Y-124098650D01*
X153995244Y-124280970D01*
X153932009Y-124475586D01*
X153923391Y-124530000D01*
X155566988Y-124530000D01*
X155534075Y-124587007D01*
X155500000Y-124714174D01*
X155500000Y-124845826D01*
X155534075Y-124972993D01*
X155566988Y-125030000D01*
X153923391Y-125030000D01*
X153932009Y-125084413D01*
X153995244Y-125279029D01*
X154088140Y-125461349D01*
X154208417Y-125626894D01*
X154208417Y-125626895D01*
X154288341Y-125706819D01*
X154321826Y-125768142D01*
X154316842Y-125837834D01*
X154274970Y-125893767D01*
X154209506Y-125918184D01*
X154200660Y-125918500D01*
X151494833Y-125918500D01*
X151427794Y-125898815D01*
X151407152Y-125882181D01*
X150171819Y-124646848D01*
X150138334Y-124585525D01*
X150135500Y-124559167D01*
X150135500Y-122860439D01*
X150115020Y-122784009D01*
X150115017Y-122784004D01*
X150075464Y-122715495D01*
X150075458Y-122715487D01*
X149336819Y-121976848D01*
X149303334Y-121915525D01*
X149300500Y-121889167D01*
X149300500Y-119798543D01*
X154199499Y-119798543D01*
X154237947Y-119991829D01*
X154237950Y-119991839D01*
X154313364Y-120173907D01*
X154313371Y-120173920D01*
X154422860Y-120337781D01*
X154422863Y-120337785D01*
X154562214Y-120477136D01*
X154562218Y-120477139D01*
X154726079Y-120586628D01*
X154726092Y-120586635D01*
X154908160Y-120662049D01*
X154908165Y-120662051D01*
X154908169Y-120662051D01*
X154908170Y-120662052D01*
X155101456Y-120700500D01*
X155101459Y-120700500D01*
X156298543Y-120700500D01*
X156428582Y-120674632D01*
X156491835Y-120662051D01*
X156673914Y-120586632D01*
X156837782Y-120477139D01*
X156977139Y-120337782D01*
X157086632Y-120173914D01*
X157162051Y-119991835D01*
X157200500Y-119798541D01*
X157200500Y-119601459D01*
X157200500Y-119601456D01*
X157162052Y-119408170D01*
X157162051Y-119408169D01*
X157162051Y-119408165D01*
X157162049Y-119408160D01*
X157086635Y-119226092D01*
X157086628Y-119226079D01*
X156977139Y-119062218D01*
X156977136Y-119062214D01*
X156837785Y-118922863D01*
X156837781Y-118922860D01*
X156673920Y-118813371D01*
X156673907Y-118813364D01*
X156491839Y-118737950D01*
X156491829Y-118737947D01*
X156298543Y-118699500D01*
X156298541Y-118699500D01*
X155101459Y-118699500D01*
X155101457Y-118699500D01*
X154908170Y-118737947D01*
X154908160Y-118737950D01*
X154726092Y-118813364D01*
X154726079Y-118813371D01*
X154562218Y-118922860D01*
X154562214Y-118922863D01*
X154422863Y-119062214D01*
X154422860Y-119062218D01*
X154313371Y-119226079D01*
X154313364Y-119226092D01*
X154237950Y-119408160D01*
X154237947Y-119408170D01*
X154199500Y-119601456D01*
X154199500Y-119601459D01*
X154199500Y-119798541D01*
X154199500Y-119798543D01*
X154199499Y-119798543D01*
X149300500Y-119798543D01*
X149300500Y-85476235D01*
X149320185Y-85409196D01*
X149372989Y-85363441D01*
X149442147Y-85353497D01*
X149471951Y-85361673D01*
X149528580Y-85385130D01*
X149669940Y-85413248D01*
X149731530Y-85425499D01*
X149731534Y-85425500D01*
X149731535Y-85425500D01*
X149938466Y-85425500D01*
X149938467Y-85425499D01*
X150141420Y-85385130D01*
X150332598Y-85305941D01*
X150504655Y-85190977D01*
X150650977Y-85044655D01*
X150765941Y-84872598D01*
X150845130Y-84681420D01*
X150885500Y-84478465D01*
X150885500Y-84271535D01*
X150885499Y-84271530D01*
X151324500Y-84271530D01*
X151324500Y-84478469D01*
X151364868Y-84681412D01*
X151364870Y-84681420D01*
X151430939Y-84840925D01*
X151444059Y-84872598D01*
X151487158Y-84937101D01*
X151559024Y-85044657D01*
X151705342Y-85190975D01*
X151705345Y-85190977D01*
X151877402Y-85305941D01*
X152068580Y-85385130D01*
X152209940Y-85413248D01*
X152271530Y-85425499D01*
X152271534Y-85425500D01*
X152271535Y-85425500D01*
X152478466Y-85425500D01*
X152478467Y-85425499D01*
X152681420Y-85385130D01*
X152872598Y-85305941D01*
X153044655Y-85190977D01*
X153190977Y-85044655D01*
X153305941Y-84872598D01*
X153385130Y-84681420D01*
X153425500Y-84478465D01*
X153425500Y-84271535D01*
X153385130Y-84068580D01*
X153305941Y-83877402D01*
X153190977Y-83705345D01*
X153190975Y-83705342D01*
X153044657Y-83559024D01*
X152876655Y-83446770D01*
X152872598Y-83444059D01*
X152681420Y-83364870D01*
X152681412Y-83364868D01*
X152478469Y-83324500D01*
X152478465Y-83324500D01*
X152271535Y-83324500D01*
X152271530Y-83324500D01*
X152068587Y-83364868D01*
X152068579Y-83364870D01*
X151877403Y-83444058D01*
X151705342Y-83559024D01*
X151559024Y-83705342D01*
X151444058Y-83877403D01*
X151364870Y-84068579D01*
X151364868Y-84068587D01*
X151324500Y-84271530D01*
X150885499Y-84271530D01*
X150845130Y-84068580D01*
X150765941Y-83877402D01*
X150650977Y-83705345D01*
X150650975Y-83705342D01*
X150504657Y-83559024D01*
X150336655Y-83446770D01*
X150332598Y-83444059D01*
X150141420Y-83364870D01*
X150141412Y-83364868D01*
X149938469Y-83324500D01*
X149938465Y-83324500D01*
X149731535Y-83324500D01*
X149731530Y-83324500D01*
X149528587Y-83364868D01*
X149528579Y-83364870D01*
X149337403Y-83444058D01*
X149165342Y-83559024D01*
X149019024Y-83705342D01*
X148904058Y-83877403D01*
X148824870Y-84068579D01*
X148824868Y-84068587D01*
X148784500Y-84271530D01*
X148784500Y-84478469D01*
X148824868Y-84681412D01*
X148824870Y-84681420D01*
X148874803Y-84801969D01*
X148876939Y-84821843D01*
X148883926Y-84840572D01*
X148880598Y-84855871D01*
X148882272Y-84871439D01*
X148873324Y-84889314D01*
X148869076Y-84908846D01*
X148852386Y-84931141D01*
X148850997Y-84933918D01*
X148847926Y-84937101D01*
X148815491Y-84969538D01*
X148759538Y-85025491D01*
X148759535Y-85025495D01*
X148719982Y-85094004D01*
X148719978Y-85094013D01*
X148716184Y-85108173D01*
X148679818Y-85167833D01*
X148616971Y-85198361D01*
X148547595Y-85190064D01*
X148508729Y-85163758D01*
X148282075Y-84937104D01*
X148248590Y-84875781D01*
X148253574Y-84806089D01*
X148255163Y-84802049D01*
X148305130Y-84681420D01*
X148345500Y-84478465D01*
X148345500Y-84271535D01*
X148305130Y-84068580D01*
X148225941Y-83877402D01*
X148110977Y-83705345D01*
X148110975Y-83705342D01*
X147964657Y-83559024D01*
X147796655Y-83446770D01*
X147792598Y-83444059D01*
X147601420Y-83364870D01*
X147601412Y-83364868D01*
X147398469Y-83324500D01*
X147398465Y-83324500D01*
X147191535Y-83324500D01*
X147191530Y-83324500D01*
X146988587Y-83364868D01*
X146988579Y-83364870D01*
X146797403Y-83444058D01*
X146625342Y-83559024D01*
X146479024Y-83705342D01*
X146364057Y-83877403D01*
X146295835Y-84042108D01*
X146251994Y-84096511D01*
X146185700Y-84118576D01*
X146118000Y-84101297D01*
X146070390Y-84050159D01*
X146063343Y-84032973D01*
X146006095Y-83856782D01*
X145909620Y-83667442D01*
X145784727Y-83495540D01*
X145784723Y-83495535D01*
X145634464Y-83345276D01*
X145634459Y-83345272D01*
X145462557Y-83220379D01*
X145273215Y-83123903D01*
X145071124Y-83058241D01*
X145005000Y-83047768D01*
X145005000Y-83941988D01*
X144947993Y-83909075D01*
X144820826Y-83875000D01*
X144689174Y-83875000D01*
X144562007Y-83909075D01*
X144505000Y-83941988D01*
X144505000Y-83047768D01*
X144504999Y-83047768D01*
X144438875Y-83058241D01*
X144236784Y-83123903D01*
X144047442Y-83220379D01*
X143875540Y-83345272D01*
X143875535Y-83345276D01*
X143725276Y-83495535D01*
X143725272Y-83495540D01*
X143600379Y-83667442D01*
X143503905Y-83856781D01*
X143446656Y-84032974D01*
X143407218Y-84090649D01*
X143342859Y-84117847D01*
X143274013Y-84105932D01*
X143222537Y-84058688D01*
X143214164Y-84042107D01*
X143145943Y-83877405D01*
X143030975Y-83705342D01*
X142951819Y-83626186D01*
X142918334Y-83564863D01*
X142915500Y-83538505D01*
X142915500Y-82146004D01*
X142888581Y-82010677D01*
X142888580Y-82010676D01*
X142888580Y-82010672D01*
X142888578Y-82010667D01*
X142835777Y-81883193D01*
X142835774Y-81883188D01*
X142820573Y-81860437D01*
X142759112Y-81768454D01*
X142446545Y-81455887D01*
X142331807Y-81379222D01*
X142204332Y-81326421D01*
X142204322Y-81326418D01*
X142068996Y-81299500D01*
X142068994Y-81299500D01*
X142068993Y-81299500D01*
X138841518Y-81299500D01*
X138774479Y-81279815D01*
X138753837Y-81263181D01*
X138010553Y-80519896D01*
X137736819Y-80246162D01*
X137703334Y-80184839D01*
X137700500Y-80158481D01*
X137700500Y-79297682D01*
X138200000Y-79297682D01*
X138200000Y-79502317D01*
X138232009Y-79704417D01*
X138295244Y-79899031D01*
X138388141Y-80081350D01*
X138388147Y-80081359D01*
X138420523Y-80125921D01*
X138420524Y-80125922D01*
X139100000Y-79446446D01*
X139100000Y-79452661D01*
X139127259Y-79554394D01*
X139179920Y-79645606D01*
X139254394Y-79720080D01*
X139345606Y-79772741D01*
X139447339Y-79800000D01*
X139453553Y-79800000D01*
X138774076Y-80479474D01*
X138818650Y-80511859D01*
X139000968Y-80604755D01*
X139195582Y-80667990D01*
X139397683Y-80700000D01*
X139602317Y-80700000D01*
X139804417Y-80667990D01*
X139999031Y-80604755D01*
X140181349Y-80511859D01*
X140225921Y-80479474D01*
X139546447Y-79800000D01*
X139552661Y-79800000D01*
X139654394Y-79772741D01*
X139745606Y-79720080D01*
X139820080Y-79645606D01*
X139872741Y-79554394D01*
X139900000Y-79452661D01*
X139900000Y-79446448D01*
X140579474Y-80125922D01*
X140579474Y-80125921D01*
X140611859Y-80081349D01*
X140704755Y-79899031D01*
X140767990Y-79704417D01*
X140800000Y-79502317D01*
X140800000Y-79297682D01*
X140767990Y-79095582D01*
X140704755Y-78900968D01*
X140611859Y-78718650D01*
X140579474Y-78674077D01*
X140579474Y-78674076D01*
X139900000Y-79353551D01*
X139900000Y-79347339D01*
X139872741Y-79245606D01*
X139820080Y-79154394D01*
X139745606Y-79079920D01*
X139654394Y-79027259D01*
X139552661Y-79000000D01*
X139546446Y-79000000D01*
X140225922Y-78320524D01*
X140225921Y-78320523D01*
X140181359Y-78288147D01*
X140181350Y-78288141D01*
X139999031Y-78195244D01*
X139804417Y-78132009D01*
X139602317Y-78100000D01*
X139397683Y-78100000D01*
X139195582Y-78132009D01*
X139000968Y-78195244D01*
X138818644Y-78288143D01*
X138774077Y-78320523D01*
X138774077Y-78320524D01*
X139453554Y-79000000D01*
X139447339Y-79000000D01*
X139345606Y-79027259D01*
X139254394Y-79079920D01*
X139179920Y-79154394D01*
X139127259Y-79245606D01*
X139100000Y-79347339D01*
X139100000Y-79353553D01*
X138420524Y-78674077D01*
X138420523Y-78674077D01*
X138388143Y-78718644D01*
X138295244Y-78900968D01*
X138232009Y-79095582D01*
X138200000Y-79297682D01*
X137700500Y-79297682D01*
X137700500Y-76824500D01*
X137720185Y-76757461D01*
X137772989Y-76711706D01*
X137824500Y-76700500D01*
X141568996Y-76700500D01*
X141660040Y-76682389D01*
X141704328Y-76673580D01*
X141768069Y-76647177D01*
X141831807Y-76620777D01*
X141831808Y-76620776D01*
X141831811Y-76620775D01*
X141946543Y-76544114D01*
X143044114Y-75446543D01*
X143120775Y-75331811D01*
X143135333Y-75296666D01*
X143173578Y-75204332D01*
X143173580Y-75204328D01*
X143200500Y-75068994D01*
X143200500Y-74931006D01*
X143200500Y-72297682D01*
X145200000Y-72297682D01*
X145200000Y-72502317D01*
X145232009Y-72704417D01*
X145295244Y-72899031D01*
X145388141Y-73081350D01*
X145388147Y-73081359D01*
X145420523Y-73125921D01*
X145420524Y-73125922D01*
X146100000Y-72446446D01*
X146100000Y-72452661D01*
X146127259Y-72554394D01*
X146179920Y-72645606D01*
X146254394Y-72720080D01*
X146345606Y-72772741D01*
X146447339Y-72800000D01*
X146453553Y-72800000D01*
X145774076Y-73479474D01*
X145818650Y-73511859D01*
X146000968Y-73604755D01*
X146195582Y-73667990D01*
X146397683Y-73700000D01*
X146602317Y-73700000D01*
X146804417Y-73667990D01*
X146999031Y-73604755D01*
X147181349Y-73511859D01*
X147225921Y-73479474D01*
X146546447Y-72800000D01*
X146552661Y-72800000D01*
X146654394Y-72772741D01*
X146745606Y-72720080D01*
X146820080Y-72645606D01*
X146872741Y-72554394D01*
X146900000Y-72452661D01*
X146900000Y-72446448D01*
X147579474Y-73125922D01*
X147579474Y-73125921D01*
X147611859Y-73081349D01*
X147704755Y-72899031D01*
X147767990Y-72704417D01*
X147800000Y-72502317D01*
X147800000Y-72297682D01*
X147767990Y-72095582D01*
X147704755Y-71900968D01*
X147611859Y-71718650D01*
X147579474Y-71674077D01*
X147579474Y-71674076D01*
X146900000Y-72353551D01*
X146900000Y-72347339D01*
X146872741Y-72245606D01*
X146820080Y-72154394D01*
X146745606Y-72079920D01*
X146654394Y-72027259D01*
X146552661Y-72000000D01*
X146546446Y-72000000D01*
X147225922Y-71320524D01*
X147225921Y-71320523D01*
X147181359Y-71288147D01*
X147181350Y-71288141D01*
X146999031Y-71195244D01*
X146804417Y-71132009D01*
X146602317Y-71100000D01*
X146397683Y-71100000D01*
X146195582Y-71132009D01*
X146000968Y-71195244D01*
X145818644Y-71288143D01*
X145774077Y-71320523D01*
X145774077Y-71320524D01*
X146453554Y-72000000D01*
X146447339Y-72000000D01*
X146345606Y-72027259D01*
X146254394Y-72079920D01*
X146179920Y-72154394D01*
X146127259Y-72245606D01*
X146100000Y-72347339D01*
X146100000Y-72353553D01*
X145420524Y-71674077D01*
X145420523Y-71674077D01*
X145388143Y-71718644D01*
X145295244Y-71900968D01*
X145232009Y-72095582D01*
X145200000Y-72297682D01*
X143200500Y-72297682D01*
X143200500Y-70931007D01*
X143200500Y-70931004D01*
X143173581Y-70795676D01*
X143173580Y-70795674D01*
X143173580Y-70795672D01*
X143170461Y-70788143D01*
X143167821Y-70781768D01*
X143121994Y-70671133D01*
X143121989Y-70671120D01*
X143120777Y-70668195D01*
X143120775Y-70668189D01*
X143081897Y-70610004D01*
X143044115Y-70553459D01*
X143044114Y-70553458D01*
X142946542Y-70455886D01*
X142589867Y-70099211D01*
X141446546Y-68955888D01*
X141446545Y-68955887D01*
X141331807Y-68879222D01*
X141204332Y-68826421D01*
X141204322Y-68826418D01*
X141068996Y-68799500D01*
X141068994Y-68799500D01*
X141068993Y-68799500D01*
X131881995Y-68799500D01*
X131744007Y-68799500D01*
X131744005Y-68799500D01*
X131608678Y-68826418D01*
X131608668Y-68826421D01*
X131481193Y-68879223D01*
X131393390Y-68937890D01*
X131326712Y-68958767D01*
X131259332Y-68940282D01*
X131212642Y-68888302D01*
X131200500Y-68834787D01*
X131200500Y-66797682D01*
X138200000Y-66797682D01*
X138200000Y-67002317D01*
X138232009Y-67204417D01*
X138295244Y-67399031D01*
X138388141Y-67581350D01*
X138388147Y-67581359D01*
X138420523Y-67625921D01*
X138420524Y-67625922D01*
X139100000Y-66946446D01*
X139100000Y-66952661D01*
X139127259Y-67054394D01*
X139179920Y-67145606D01*
X139254394Y-67220080D01*
X139345606Y-67272741D01*
X139447339Y-67300000D01*
X139453553Y-67300000D01*
X138774076Y-67979474D01*
X138818650Y-68011859D01*
X139000968Y-68104755D01*
X139195582Y-68167990D01*
X139397683Y-68200000D01*
X139602317Y-68200000D01*
X139804417Y-68167990D01*
X139999031Y-68104755D01*
X140181349Y-68011859D01*
X140225921Y-67979474D01*
X139546447Y-67300000D01*
X139552661Y-67300000D01*
X139654394Y-67272741D01*
X139745606Y-67220080D01*
X139820080Y-67145606D01*
X139872741Y-67054394D01*
X139900000Y-66952661D01*
X139900000Y-66946447D01*
X140579474Y-67625921D01*
X140611859Y-67581349D01*
X140704755Y-67399031D01*
X140767990Y-67204417D01*
X140800000Y-67002317D01*
X140800000Y-66797682D01*
X140767990Y-66595582D01*
X140704755Y-66400968D01*
X140611859Y-66218650D01*
X140579474Y-66174077D01*
X140579474Y-66174076D01*
X139900000Y-66853551D01*
X139900000Y-66847339D01*
X139872741Y-66745606D01*
X139820080Y-66654394D01*
X139745606Y-66579920D01*
X139654394Y-66527259D01*
X139552661Y-66500000D01*
X139546446Y-66500000D01*
X140225922Y-65820524D01*
X140225921Y-65820523D01*
X140181359Y-65788147D01*
X140181350Y-65788141D01*
X139999031Y-65695244D01*
X139804417Y-65632009D01*
X139602317Y-65600000D01*
X139397683Y-65600000D01*
X139195582Y-65632009D01*
X139000968Y-65695244D01*
X138818644Y-65788143D01*
X138774077Y-65820523D01*
X138774077Y-65820524D01*
X139453554Y-66500000D01*
X139447339Y-66500000D01*
X139345606Y-66527259D01*
X139254394Y-66579920D01*
X139179920Y-66654394D01*
X139127259Y-66745606D01*
X139100000Y-66847339D01*
X139100000Y-66853553D01*
X138420524Y-66174077D01*
X138420523Y-66174077D01*
X138388143Y-66218644D01*
X138295244Y-66400968D01*
X138232009Y-66595582D01*
X138200000Y-66797682D01*
X131200500Y-66797682D01*
X131200500Y-65764500D01*
X131220185Y-65697461D01*
X131272989Y-65651706D01*
X131324500Y-65640500D01*
X132019750Y-65640500D01*
X132019751Y-65640499D01*
X132034568Y-65637552D01*
X132078229Y-65628868D01*
X132078229Y-65628867D01*
X132078231Y-65628867D01*
X132144552Y-65584552D01*
X132188867Y-65518231D01*
X132188867Y-65518229D01*
X132188868Y-65518229D01*
X132200499Y-65459752D01*
X132200500Y-65459750D01*
X132200500Y-64878543D01*
X145499499Y-64878543D01*
X145537947Y-65071829D01*
X145537950Y-65071839D01*
X145613364Y-65253907D01*
X145613371Y-65253920D01*
X145722860Y-65417781D01*
X145722863Y-65417785D01*
X145862214Y-65557136D01*
X145862218Y-65557139D01*
X146026079Y-65666628D01*
X146026092Y-65666635D01*
X146208160Y-65742049D01*
X146208165Y-65742051D01*
X146208169Y-65742051D01*
X146208170Y-65742052D01*
X146401456Y-65780500D01*
X146401459Y-65780500D01*
X146598543Y-65780500D01*
X146728582Y-65754632D01*
X146791835Y-65742051D01*
X146973914Y-65666632D01*
X147137782Y-65557139D01*
X147277139Y-65417782D01*
X147386632Y-65253914D01*
X147426755Y-65157048D01*
X147470595Y-65102644D01*
X147536889Y-65080579D01*
X147541316Y-65080500D01*
X148072167Y-65080500D01*
X148139206Y-65100185D01*
X148159848Y-65116819D01*
X150262181Y-67219152D01*
X150295666Y-67280475D01*
X150298500Y-67306833D01*
X150298500Y-81840562D01*
X150303826Y-81860437D01*
X150318979Y-81916990D01*
X150318982Y-81916995D01*
X150358535Y-81985504D01*
X150358539Y-81985509D01*
X150358540Y-81985511D01*
X150457540Y-82084511D01*
X150513489Y-82140460D01*
X150513491Y-82140461D01*
X150513495Y-82140464D01*
X150582004Y-82180017D01*
X150582011Y-82180021D01*
X150658438Y-82200500D01*
X150737562Y-82200500D01*
X154224167Y-82200500D01*
X154291206Y-82220185D01*
X154311848Y-82236819D01*
X154663181Y-82588152D01*
X154696666Y-82649475D01*
X154699500Y-82675833D01*
X154699500Y-85824167D01*
X154679815Y-85891206D01*
X154663181Y-85911848D01*
X153911848Y-86663181D01*
X153850525Y-86696666D01*
X153824167Y-86699500D01*
X151539562Y-86699500D01*
X151460438Y-86699500D01*
X151422224Y-86709739D01*
X151384009Y-86719979D01*
X151384004Y-86719982D01*
X151315495Y-86759535D01*
X151315487Y-86759541D01*
X151259541Y-86815487D01*
X151259535Y-86815495D01*
X151219982Y-86884004D01*
X151219979Y-86884009D01*
X151206326Y-86934962D01*
X151199500Y-86960438D01*
X151199500Y-116039562D01*
X151213152Y-116090513D01*
X151219979Y-116115990D01*
X151219980Y-116115991D01*
X151245100Y-116159500D01*
X151259540Y-116184511D01*
X152759540Y-117684511D01*
X152815489Y-117740460D01*
X152815491Y-117740461D01*
X152815495Y-117740464D01*
X152884004Y-117780017D01*
X152884011Y-117780021D01*
X152960438Y-117800500D01*
X153039562Y-117800500D01*
X154374217Y-117800500D01*
X154441256Y-117820185D01*
X154461893Y-117836814D01*
X154562215Y-117937136D01*
X154562219Y-117937140D01*
X154726079Y-118046628D01*
X154726092Y-118046635D01*
X154908160Y-118122049D01*
X154908165Y-118122051D01*
X154908169Y-118122051D01*
X154908170Y-118122052D01*
X155101456Y-118160500D01*
X155101459Y-118160500D01*
X156298543Y-118160500D01*
X156428582Y-118134632D01*
X156491835Y-118122051D01*
X156673914Y-118046632D01*
X156837782Y-117937139D01*
X156977139Y-117797782D01*
X157086632Y-117633914D01*
X157162051Y-117451835D01*
X157200500Y-117258541D01*
X157200500Y-117061459D01*
X157200500Y-117061456D01*
X157162052Y-116868170D01*
X157162051Y-116868169D01*
X157162051Y-116868165D01*
X157162049Y-116868160D01*
X157086635Y-116686092D01*
X157086628Y-116686079D01*
X156977139Y-116522218D01*
X156977136Y-116522214D01*
X156837785Y-116382863D01*
X156837781Y-116382860D01*
X156673920Y-116273371D01*
X156673907Y-116273364D01*
X156491839Y-116197950D01*
X156491829Y-116197947D01*
X156298543Y-116159500D01*
X156298541Y-116159500D01*
X155101459Y-116159500D01*
X155101457Y-116159500D01*
X154908170Y-116197947D01*
X154908160Y-116197950D01*
X154726092Y-116273364D01*
X154726079Y-116273371D01*
X154562218Y-116382860D01*
X154562214Y-116382863D01*
X154422863Y-116522214D01*
X154422860Y-116522218D01*
X154313371Y-116686079D01*
X154313364Y-116686092D01*
X154237950Y-116868160D01*
X154237947Y-116868170D01*
X154199500Y-117061456D01*
X154199500Y-117075500D01*
X154179815Y-117142539D01*
X154127011Y-117188294D01*
X154075500Y-117199500D01*
X153175833Y-117199500D01*
X153108794Y-117179815D01*
X153088152Y-117163181D01*
X151836819Y-115911848D01*
X151803334Y-115850525D01*
X151800500Y-115824167D01*
X151800500Y-114718543D01*
X154199499Y-114718543D01*
X154237947Y-114911829D01*
X154237950Y-114911839D01*
X154313364Y-115093907D01*
X154313371Y-115093920D01*
X154422860Y-115257781D01*
X154422863Y-115257785D01*
X154562214Y-115397136D01*
X154562218Y-115397139D01*
X154726079Y-115506628D01*
X154726092Y-115506635D01*
X154908160Y-115582049D01*
X154908165Y-115582051D01*
X154908169Y-115582051D01*
X154908170Y-115582052D01*
X155101456Y-115620500D01*
X155101459Y-115620500D01*
X156298543Y-115620500D01*
X156428582Y-115594632D01*
X156491835Y-115582051D01*
X156673914Y-115506632D01*
X156837782Y-115397139D01*
X156977139Y-115257782D01*
X157086632Y-115093914D01*
X157162051Y-114911835D01*
X157200500Y-114718541D01*
X157200500Y-114521459D01*
X157200500Y-114521456D01*
X157162052Y-114328170D01*
X157162051Y-114328169D01*
X157162051Y-114328165D01*
X157162049Y-114328160D01*
X157086635Y-114146092D01*
X157086628Y-114146079D01*
X156977139Y-113982218D01*
X156977136Y-113982214D01*
X156837785Y-113842863D01*
X156837781Y-113842860D01*
X156673920Y-113733371D01*
X156673907Y-113733364D01*
X156491839Y-113657950D01*
X156491829Y-113657947D01*
X156298543Y-113619500D01*
X156298541Y-113619500D01*
X155101459Y-113619500D01*
X155101457Y-113619500D01*
X154908170Y-113657947D01*
X154908160Y-113657950D01*
X154726092Y-113733364D01*
X154726079Y-113733371D01*
X154562218Y-113842860D01*
X154562214Y-113842863D01*
X154422863Y-113982214D01*
X154422860Y-113982218D01*
X154313371Y-114146079D01*
X154313364Y-114146092D01*
X154237950Y-114328160D01*
X154237947Y-114328170D01*
X154199500Y-114521456D01*
X154199500Y-114521459D01*
X154199500Y-114718541D01*
X154199500Y-114718543D01*
X154199499Y-114718543D01*
X151800500Y-114718543D01*
X151800500Y-109638543D01*
X154199499Y-109638543D01*
X154237947Y-109831829D01*
X154237950Y-109831839D01*
X154313364Y-110013907D01*
X154313371Y-110013920D01*
X154422860Y-110177781D01*
X154422863Y-110177785D01*
X154562214Y-110317136D01*
X154562218Y-110317139D01*
X154726079Y-110426628D01*
X154726092Y-110426635D01*
X154908160Y-110502049D01*
X154908165Y-110502051D01*
X154908169Y-110502051D01*
X154908170Y-110502052D01*
X155101456Y-110540500D01*
X155101459Y-110540500D01*
X156298543Y-110540500D01*
X156428582Y-110514632D01*
X156491835Y-110502051D01*
X156673914Y-110426632D01*
X156837782Y-110317139D01*
X156977139Y-110177782D01*
X157086632Y-110013914D01*
X157162051Y-109831835D01*
X157200500Y-109638541D01*
X157200500Y-109441459D01*
X157200500Y-109441456D01*
X157162052Y-109248170D01*
X157162051Y-109248169D01*
X157162051Y-109248165D01*
X157140439Y-109195988D01*
X157086635Y-109066092D01*
X157086628Y-109066079D01*
X156977139Y-108902218D01*
X156977136Y-108902214D01*
X156837785Y-108762863D01*
X156837781Y-108762860D01*
X156673920Y-108653371D01*
X156673907Y-108653364D01*
X156491839Y-108577950D01*
X156491829Y-108577947D01*
X156298543Y-108539500D01*
X156298541Y-108539500D01*
X155101459Y-108539500D01*
X155101457Y-108539500D01*
X154908170Y-108577947D01*
X154908160Y-108577950D01*
X154726092Y-108653364D01*
X154726079Y-108653371D01*
X154562218Y-108762860D01*
X154562214Y-108762863D01*
X154422863Y-108902214D01*
X154422860Y-108902218D01*
X154313371Y-109066079D01*
X154313364Y-109066092D01*
X154237950Y-109248160D01*
X154237947Y-109248170D01*
X154199500Y-109441456D01*
X154199500Y-109441459D01*
X154199500Y-109638541D01*
X154199500Y-109638543D01*
X154199499Y-109638543D01*
X151800500Y-109638543D01*
X151800500Y-107098543D01*
X154199499Y-107098543D01*
X154237947Y-107291829D01*
X154237950Y-107291839D01*
X154313364Y-107473907D01*
X154313371Y-107473920D01*
X154422860Y-107637781D01*
X154422863Y-107637785D01*
X154562214Y-107777136D01*
X154562218Y-107777139D01*
X154726079Y-107886628D01*
X154726092Y-107886635D01*
X154908160Y-107962049D01*
X154908165Y-107962051D01*
X154908169Y-107962051D01*
X154908170Y-107962052D01*
X155101456Y-108000500D01*
X155101459Y-108000500D01*
X156298543Y-108000500D01*
X156428582Y-107974632D01*
X156491835Y-107962051D01*
X156673914Y-107886632D01*
X156837782Y-107777139D01*
X156977139Y-107637782D01*
X157086632Y-107473914D01*
X157162051Y-107291835D01*
X157200500Y-107098541D01*
X157200500Y-106901459D01*
X157200500Y-106901456D01*
X157162052Y-106708170D01*
X157162051Y-106708169D01*
X157162051Y-106708165D01*
X157162049Y-106708160D01*
X157086635Y-106526092D01*
X157086628Y-106526079D01*
X156977139Y-106362218D01*
X156977136Y-106362214D01*
X156837785Y-106222863D01*
X156837781Y-106222860D01*
X156673920Y-106113371D01*
X156673907Y-106113364D01*
X156491839Y-106037950D01*
X156491829Y-106037947D01*
X156298543Y-105999500D01*
X156298541Y-105999500D01*
X155101459Y-105999500D01*
X155101457Y-105999500D01*
X154908170Y-106037947D01*
X154908160Y-106037950D01*
X154726092Y-106113364D01*
X154726079Y-106113371D01*
X154562218Y-106222860D01*
X154562214Y-106222863D01*
X154422863Y-106362214D01*
X154422860Y-106362218D01*
X154313371Y-106526079D01*
X154313364Y-106526092D01*
X154237950Y-106708160D01*
X154237947Y-106708170D01*
X154199500Y-106901456D01*
X154199500Y-106901459D01*
X154199500Y-107098541D01*
X154199500Y-107098543D01*
X154199499Y-107098543D01*
X151800500Y-107098543D01*
X151800500Y-104558543D01*
X154199499Y-104558543D01*
X154237947Y-104751829D01*
X154237950Y-104751839D01*
X154313364Y-104933907D01*
X154313371Y-104933920D01*
X154422860Y-105097781D01*
X154422863Y-105097785D01*
X154562214Y-105237136D01*
X154562218Y-105237139D01*
X154726079Y-105346628D01*
X154726092Y-105346635D01*
X154908160Y-105422049D01*
X154908165Y-105422051D01*
X154908169Y-105422051D01*
X154908170Y-105422052D01*
X155101456Y-105460500D01*
X155101459Y-105460500D01*
X156298543Y-105460500D01*
X156428582Y-105434632D01*
X156491835Y-105422051D01*
X156673914Y-105346632D01*
X156837782Y-105237139D01*
X156977139Y-105097782D01*
X157086632Y-104933914D01*
X157162051Y-104751835D01*
X157200500Y-104558541D01*
X157200500Y-104361459D01*
X157200500Y-104361456D01*
X157162052Y-104168170D01*
X157162051Y-104168169D01*
X157162051Y-104168165D01*
X157162049Y-104168160D01*
X157086635Y-103986092D01*
X157086628Y-103986079D01*
X156977139Y-103822218D01*
X156977136Y-103822214D01*
X156837785Y-103682863D01*
X156837781Y-103682860D01*
X156673920Y-103573371D01*
X156673907Y-103573364D01*
X156491839Y-103497950D01*
X156491829Y-103497947D01*
X156298543Y-103459500D01*
X156298541Y-103459500D01*
X155101459Y-103459500D01*
X155101457Y-103459500D01*
X154908170Y-103497947D01*
X154908160Y-103497950D01*
X154726092Y-103573364D01*
X154726079Y-103573371D01*
X154562218Y-103682860D01*
X154562214Y-103682863D01*
X154422863Y-103822214D01*
X154422860Y-103822218D01*
X154313371Y-103986079D01*
X154313364Y-103986092D01*
X154237950Y-104168160D01*
X154237947Y-104168170D01*
X154199500Y-104361456D01*
X154199500Y-104361459D01*
X154199500Y-104558541D01*
X154199500Y-104558543D01*
X154199499Y-104558543D01*
X151800500Y-104558543D01*
X151800500Y-102018543D01*
X154199499Y-102018543D01*
X154237947Y-102211829D01*
X154237950Y-102211839D01*
X154313364Y-102393907D01*
X154313371Y-102393920D01*
X154422860Y-102557781D01*
X154422863Y-102557785D01*
X154562214Y-102697136D01*
X154562218Y-102697139D01*
X154726079Y-102806628D01*
X154726092Y-102806635D01*
X154908160Y-102882049D01*
X154908165Y-102882051D01*
X154908169Y-102882051D01*
X154908170Y-102882052D01*
X155101456Y-102920500D01*
X155101459Y-102920500D01*
X156298543Y-102920500D01*
X156428582Y-102894632D01*
X156491835Y-102882051D01*
X156673914Y-102806632D01*
X156837782Y-102697139D01*
X156977139Y-102557782D01*
X157086632Y-102393914D01*
X157162051Y-102211835D01*
X157200500Y-102018541D01*
X157200500Y-101821459D01*
X157200500Y-101821456D01*
X157162052Y-101628170D01*
X157162051Y-101628169D01*
X157162051Y-101628165D01*
X157162049Y-101628160D01*
X157086635Y-101446092D01*
X157086628Y-101446079D01*
X156977139Y-101282218D01*
X156977136Y-101282214D01*
X156837785Y-101142863D01*
X156837781Y-101142860D01*
X156673920Y-101033371D01*
X156673907Y-101033364D01*
X156491839Y-100957950D01*
X156491829Y-100957947D01*
X156298543Y-100919500D01*
X156298541Y-100919500D01*
X155101459Y-100919500D01*
X155101457Y-100919500D01*
X154908170Y-100957947D01*
X154908160Y-100957950D01*
X154726092Y-101033364D01*
X154726079Y-101033371D01*
X154562218Y-101142860D01*
X154562214Y-101142863D01*
X154422863Y-101282214D01*
X154422860Y-101282218D01*
X154313371Y-101446079D01*
X154313364Y-101446092D01*
X154237950Y-101628160D01*
X154237947Y-101628170D01*
X154199500Y-101821456D01*
X154199500Y-101821459D01*
X154199500Y-102018541D01*
X154199500Y-102018543D01*
X154199499Y-102018543D01*
X151800500Y-102018543D01*
X151800500Y-99478543D01*
X154199499Y-99478543D01*
X154237947Y-99671829D01*
X154237950Y-99671839D01*
X154313364Y-99853907D01*
X154313371Y-99853920D01*
X154422860Y-100017781D01*
X154422863Y-100017785D01*
X154562214Y-100157136D01*
X154562218Y-100157139D01*
X154726079Y-100266628D01*
X154726092Y-100266635D01*
X154908160Y-100342049D01*
X154908165Y-100342051D01*
X154908169Y-100342051D01*
X154908170Y-100342052D01*
X155101456Y-100380500D01*
X155101459Y-100380500D01*
X156298543Y-100380500D01*
X156428582Y-100354632D01*
X156491835Y-100342051D01*
X156673914Y-100266632D01*
X156837782Y-100157139D01*
X156977139Y-100017782D01*
X157086632Y-99853914D01*
X157162051Y-99671835D01*
X157200500Y-99478541D01*
X157200500Y-99281459D01*
X157200500Y-99281456D01*
X157162052Y-99088170D01*
X157162051Y-99088169D01*
X157162051Y-99088165D01*
X157162049Y-99088160D01*
X157086635Y-98906092D01*
X157086628Y-98906079D01*
X156977139Y-98742218D01*
X156977136Y-98742214D01*
X156837785Y-98602863D01*
X156837781Y-98602860D01*
X156673920Y-98493371D01*
X156673907Y-98493364D01*
X156491839Y-98417950D01*
X156491829Y-98417947D01*
X156298543Y-98379500D01*
X156298541Y-98379500D01*
X155101459Y-98379500D01*
X155101457Y-98379500D01*
X154908170Y-98417947D01*
X154908160Y-98417950D01*
X154726092Y-98493364D01*
X154726079Y-98493371D01*
X154562218Y-98602860D01*
X154562214Y-98602863D01*
X154422863Y-98742214D01*
X154422860Y-98742218D01*
X154313371Y-98906079D01*
X154313364Y-98906092D01*
X154237950Y-99088160D01*
X154237947Y-99088170D01*
X154199500Y-99281456D01*
X154199500Y-99281459D01*
X154199500Y-99478541D01*
X154199500Y-99478543D01*
X154199499Y-99478543D01*
X151800500Y-99478543D01*
X151800500Y-96938543D01*
X154199499Y-96938543D01*
X154237947Y-97131829D01*
X154237950Y-97131839D01*
X154313364Y-97313907D01*
X154313371Y-97313920D01*
X154422860Y-97477781D01*
X154422863Y-97477785D01*
X154562214Y-97617136D01*
X154562218Y-97617139D01*
X154726079Y-97726628D01*
X154726092Y-97726635D01*
X154908160Y-97802049D01*
X154908165Y-97802051D01*
X154908169Y-97802051D01*
X154908170Y-97802052D01*
X155101456Y-97840500D01*
X155101459Y-97840500D01*
X156298543Y-97840500D01*
X156428582Y-97814632D01*
X156491835Y-97802051D01*
X156673914Y-97726632D01*
X156837782Y-97617139D01*
X156977139Y-97477782D01*
X157086632Y-97313914D01*
X157162051Y-97131835D01*
X157200500Y-96938541D01*
X157200500Y-96741459D01*
X157200500Y-96741456D01*
X157162052Y-96548170D01*
X157162051Y-96548169D01*
X157162051Y-96548165D01*
X157126755Y-96462952D01*
X157086635Y-96366092D01*
X157086628Y-96366079D01*
X156977139Y-96202218D01*
X156977136Y-96202214D01*
X156837785Y-96062863D01*
X156837781Y-96062860D01*
X156673920Y-95953371D01*
X156673907Y-95953364D01*
X156491839Y-95877950D01*
X156491829Y-95877947D01*
X156298543Y-95839500D01*
X156298541Y-95839500D01*
X155101459Y-95839500D01*
X155101457Y-95839500D01*
X154908170Y-95877947D01*
X154908160Y-95877950D01*
X154726092Y-95953364D01*
X154726079Y-95953371D01*
X154562218Y-96062860D01*
X154562214Y-96062863D01*
X154422863Y-96202214D01*
X154422860Y-96202218D01*
X154313371Y-96366079D01*
X154313364Y-96366092D01*
X154237950Y-96548160D01*
X154237947Y-96548170D01*
X154199500Y-96741456D01*
X154199500Y-96741459D01*
X154199500Y-96938541D01*
X154199500Y-96938543D01*
X154199499Y-96938543D01*
X151800500Y-96938543D01*
X151800500Y-94398543D01*
X154199499Y-94398543D01*
X154237947Y-94591829D01*
X154237950Y-94591839D01*
X154313364Y-94773907D01*
X154313371Y-94773920D01*
X154422860Y-94937781D01*
X154422863Y-94937785D01*
X154562214Y-95077136D01*
X154562218Y-95077139D01*
X154726079Y-95186628D01*
X154726092Y-95186635D01*
X154908160Y-95262049D01*
X154908165Y-95262051D01*
X154908169Y-95262051D01*
X154908170Y-95262052D01*
X155101456Y-95300500D01*
X155101459Y-95300500D01*
X156298543Y-95300500D01*
X156428582Y-95274632D01*
X156491835Y-95262051D01*
X156673914Y-95186632D01*
X156837782Y-95077139D01*
X156977139Y-94937782D01*
X157086632Y-94773914D01*
X157162051Y-94591835D01*
X157200500Y-94398541D01*
X157200500Y-94201459D01*
X157200500Y-94201456D01*
X157162052Y-94008170D01*
X157162051Y-94008169D01*
X157162051Y-94008165D01*
X157126755Y-93922952D01*
X157086635Y-93826092D01*
X157086628Y-93826079D01*
X156977139Y-93662218D01*
X156977136Y-93662214D01*
X156837785Y-93522863D01*
X156837781Y-93522860D01*
X156673920Y-93413371D01*
X156673907Y-93413364D01*
X156491839Y-93337950D01*
X156491829Y-93337947D01*
X156298543Y-93299500D01*
X156298541Y-93299500D01*
X155101459Y-93299500D01*
X155101457Y-93299500D01*
X154908170Y-93337947D01*
X154908160Y-93337950D01*
X154726092Y-93413364D01*
X154726079Y-93413371D01*
X154562218Y-93522860D01*
X154562214Y-93522863D01*
X154422863Y-93662214D01*
X154422860Y-93662218D01*
X154313371Y-93826079D01*
X154313364Y-93826092D01*
X154237950Y-94008160D01*
X154237947Y-94008170D01*
X154199500Y-94201456D01*
X154199500Y-94201459D01*
X154199500Y-94398541D01*
X154199500Y-94398543D01*
X154199499Y-94398543D01*
X151800500Y-94398543D01*
X151800500Y-87424500D01*
X151820185Y-87357461D01*
X151872989Y-87311706D01*
X151924500Y-87300500D01*
X154039560Y-87300500D01*
X154039562Y-87300500D01*
X154115989Y-87280021D01*
X154184511Y-87240460D01*
X154240460Y-87184511D01*
X155240460Y-86184511D01*
X155280022Y-86115988D01*
X155300500Y-86039562D01*
X155300500Y-85960438D01*
X155300500Y-82460438D01*
X155280021Y-82384011D01*
X155280017Y-82384004D01*
X155240464Y-82315495D01*
X155240458Y-82315487D01*
X154584512Y-81659541D01*
X154584504Y-81659535D01*
X154515995Y-81619982D01*
X154515990Y-81619979D01*
X154490513Y-81613152D01*
X154439562Y-81599500D01*
X154439560Y-81599500D01*
X151023500Y-81599500D01*
X150956461Y-81579815D01*
X150910706Y-81527011D01*
X150899500Y-81475500D01*
X150899500Y-79618543D01*
X151999499Y-79618543D01*
X152037947Y-79811829D01*
X152037950Y-79811839D01*
X152113364Y-79993907D01*
X152113371Y-79993920D01*
X152222860Y-80157781D01*
X152222863Y-80157785D01*
X152362214Y-80297136D01*
X152362218Y-80297139D01*
X152526079Y-80406628D01*
X152526092Y-80406635D01*
X152708160Y-80482049D01*
X152708165Y-80482051D01*
X152708169Y-80482051D01*
X152708170Y-80482052D01*
X152901456Y-80520500D01*
X152901459Y-80520500D01*
X153098543Y-80520500D01*
X153228582Y-80494632D01*
X153291835Y-80482051D01*
X153473914Y-80406632D01*
X153637782Y-80297139D01*
X153777139Y-80157782D01*
X153886632Y-79993914D01*
X153926755Y-79897048D01*
X153970595Y-79842644D01*
X154036889Y-79820579D01*
X154041316Y-79820500D01*
X156075500Y-79820500D01*
X156142539Y-79840185D01*
X156188294Y-79892989D01*
X156199500Y-79944500D01*
X156199500Y-82992372D01*
X156213152Y-83043323D01*
X156219979Y-83068800D01*
X156219980Y-83068801D01*
X156243276Y-83109151D01*
X156259540Y-83137321D01*
X156259542Y-83137323D01*
X158663181Y-85540962D01*
X158696666Y-85602285D01*
X158699500Y-85628643D01*
X158699500Y-108904166D01*
X158679815Y-108971205D01*
X158663181Y-108991847D01*
X156576439Y-111078588D01*
X156515116Y-111112073D01*
X156464567Y-111112524D01*
X156298544Y-111079500D01*
X156298541Y-111079500D01*
X155101459Y-111079500D01*
X155101457Y-111079500D01*
X154908170Y-111117947D01*
X154908160Y-111117950D01*
X154726092Y-111193364D01*
X154726079Y-111193371D01*
X154562218Y-111302860D01*
X154562214Y-111302863D01*
X154422863Y-111442214D01*
X154422860Y-111442218D01*
X154313371Y-111606079D01*
X154313364Y-111606092D01*
X154237950Y-111788160D01*
X154237947Y-111788170D01*
X154199500Y-111981456D01*
X154199500Y-111981459D01*
X154199500Y-112178541D01*
X154199500Y-112178543D01*
X154199499Y-112178543D01*
X154237947Y-112371829D01*
X154237950Y-112371839D01*
X154313364Y-112553907D01*
X154313371Y-112553920D01*
X154422860Y-112717781D01*
X154422863Y-112717785D01*
X154562214Y-112857136D01*
X154562218Y-112857139D01*
X154726079Y-112966628D01*
X154726092Y-112966635D01*
X154908160Y-113042049D01*
X154908165Y-113042051D01*
X154908169Y-113042051D01*
X154908170Y-113042052D01*
X155101456Y-113080500D01*
X155101459Y-113080500D01*
X156298543Y-113080500D01*
X156428582Y-113054632D01*
X156491835Y-113042051D01*
X156673914Y-112966632D01*
X156837782Y-112857139D01*
X156977139Y-112717782D01*
X157086632Y-112553914D01*
X157162051Y-112371835D01*
X157200500Y-112178541D01*
X157200500Y-111981459D01*
X157200500Y-111981456D01*
X157162052Y-111788170D01*
X157162051Y-111788169D01*
X157162051Y-111788165D01*
X157086632Y-111606086D01*
X157067967Y-111578152D01*
X157047089Y-111511477D01*
X157065573Y-111444097D01*
X157083384Y-111421585D01*
X159240460Y-109264511D01*
X159280022Y-109195988D01*
X159300500Y-109119562D01*
X159300500Y-109040438D01*
X159300500Y-85413248D01*
X159280021Y-85336821D01*
X159260628Y-85303231D01*
X159240464Y-85268305D01*
X159240458Y-85268297D01*
X156836819Y-82864658D01*
X156803334Y-82803335D01*
X156800500Y-82776977D01*
X156800500Y-79944500D01*
X156820185Y-79877461D01*
X156872989Y-79831706D01*
X156924500Y-79820500D01*
X159459560Y-79820500D01*
X159459562Y-79820500D01*
X159535989Y-79800021D01*
X159604511Y-79760460D01*
X159660460Y-79704511D01*
X160457289Y-78907680D01*
X160518610Y-78874197D01*
X160588301Y-78879181D01*
X160606962Y-78887972D01*
X160746274Y-78968405D01*
X160952219Y-79053710D01*
X161167537Y-79111404D01*
X161388543Y-79140500D01*
X161388550Y-79140500D01*
X161611450Y-79140500D01*
X161611457Y-79140500D01*
X161832463Y-79111404D01*
X162047781Y-79053710D01*
X162253726Y-78968405D01*
X162446774Y-78856948D01*
X162623624Y-78721247D01*
X162781247Y-78563624D01*
X162916948Y-78386774D01*
X163028405Y-78193726D01*
X163113710Y-77987781D01*
X163171404Y-77772463D01*
X163200500Y-77551457D01*
X163200500Y-77328543D01*
X163171404Y-77107537D01*
X163113710Y-76892219D01*
X163028405Y-76686274D01*
X162916948Y-76493226D01*
X162781247Y-76316376D01*
X162781242Y-76316370D01*
X162623629Y-76158757D01*
X162623622Y-76158751D01*
X162446782Y-76023058D01*
X162446780Y-76023057D01*
X162446774Y-76023052D01*
X162253726Y-75911595D01*
X162253722Y-75911593D01*
X162047790Y-75826293D01*
X162047783Y-75826291D01*
X162047781Y-75826290D01*
X161832463Y-75768596D01*
X161832457Y-75768595D01*
X161832452Y-75768594D01*
X161611466Y-75739501D01*
X161611463Y-75739500D01*
X161611457Y-75739500D01*
X161388543Y-75739500D01*
X161388537Y-75739500D01*
X161388533Y-75739501D01*
X161167547Y-75768594D01*
X161167540Y-75768595D01*
X161167537Y-75768596D01*
X161066469Y-75795677D01*
X160952219Y-75826290D01*
X160952209Y-75826293D01*
X160746277Y-75911593D01*
X160746273Y-75911595D01*
X160553226Y-76023052D01*
X160553217Y-76023058D01*
X160376377Y-76158751D01*
X160376370Y-76158757D01*
X160218757Y-76316370D01*
X160218751Y-76316377D01*
X160083058Y-76493217D01*
X160083052Y-76493226D01*
X159971595Y-76686273D01*
X159971593Y-76686277D01*
X159886293Y-76892209D01*
X159886290Y-76892219D01*
X159830653Y-77099862D01*
X159828597Y-77107534D01*
X159828594Y-77107547D01*
X159799501Y-77328533D01*
X159799500Y-77328549D01*
X159799500Y-77551450D01*
X159799501Y-77551466D01*
X159828594Y-77772452D01*
X159828595Y-77772457D01*
X159828596Y-77772463D01*
X159828597Y-77772465D01*
X159886290Y-77987780D01*
X159886293Y-77987790D01*
X159971593Y-78193722D01*
X159971598Y-78193733D01*
X160052022Y-78333030D01*
X160068495Y-78400930D01*
X160045643Y-78466957D01*
X160032316Y-78482711D01*
X159331848Y-79183181D01*
X159270525Y-79216666D01*
X159244167Y-79219500D01*
X154041316Y-79219500D01*
X153974277Y-79199815D01*
X153928522Y-79147011D01*
X153926755Y-79142952D01*
X153886635Y-79046092D01*
X153886628Y-79046079D01*
X153777139Y-78882218D01*
X153777136Y-78882214D01*
X153637785Y-78742863D01*
X153637781Y-78742860D01*
X153473920Y-78633371D01*
X153473907Y-78633364D01*
X153291839Y-78557950D01*
X153291829Y-78557947D01*
X153098543Y-78519500D01*
X153098541Y-78519500D01*
X152901459Y-78519500D01*
X152901457Y-78519500D01*
X152708170Y-78557947D01*
X152708160Y-78557950D01*
X152526092Y-78633364D01*
X152526079Y-78633371D01*
X152362218Y-78742860D01*
X152362214Y-78742863D01*
X152222863Y-78882214D01*
X152222860Y-78882218D01*
X152113371Y-79046079D01*
X152113364Y-79046092D01*
X152037950Y-79228160D01*
X152037947Y-79228170D01*
X151999500Y-79421456D01*
X151999500Y-79421459D01*
X151999500Y-79618541D01*
X151999500Y-79618543D01*
X151999499Y-79618543D01*
X150899500Y-79618543D01*
X150899500Y-71797682D01*
X151700000Y-71797682D01*
X151700000Y-72002317D01*
X151732009Y-72204417D01*
X151795244Y-72399031D01*
X151888141Y-72581350D01*
X151888147Y-72581359D01*
X151920523Y-72625921D01*
X151920524Y-72625922D01*
X152600000Y-71946446D01*
X152600000Y-71952661D01*
X152627259Y-72054394D01*
X152679920Y-72145606D01*
X152754394Y-72220080D01*
X152845606Y-72272741D01*
X152947339Y-72300000D01*
X152953553Y-72300000D01*
X152274076Y-72979474D01*
X152318650Y-73011859D01*
X152500968Y-73104755D01*
X152695582Y-73167990D01*
X152897683Y-73200000D01*
X153102317Y-73200000D01*
X153304417Y-73167990D01*
X153499031Y-73104755D01*
X153681349Y-73011859D01*
X153725921Y-72979474D01*
X153046447Y-72300000D01*
X153052661Y-72300000D01*
X153154394Y-72272741D01*
X153245606Y-72220080D01*
X153320080Y-72145606D01*
X153372741Y-72054394D01*
X153400000Y-71952661D01*
X153400000Y-71946448D01*
X154079474Y-72625922D01*
X154079474Y-72625921D01*
X154111859Y-72581349D01*
X154204755Y-72399031D01*
X154267990Y-72204417D01*
X154300000Y-72002317D01*
X154300000Y-71797682D01*
X154267990Y-71595582D01*
X154204755Y-71400968D01*
X154111859Y-71218650D01*
X154079474Y-71174077D01*
X154079474Y-71174076D01*
X153400000Y-71853551D01*
X153400000Y-71847339D01*
X153372741Y-71745606D01*
X153320080Y-71654394D01*
X153245606Y-71579920D01*
X153154394Y-71527259D01*
X153052661Y-71500000D01*
X153046446Y-71500000D01*
X153725922Y-70820524D01*
X153725921Y-70820523D01*
X153681359Y-70788147D01*
X153681350Y-70788141D01*
X153499031Y-70695244D01*
X153304417Y-70632009D01*
X153102317Y-70600000D01*
X152897683Y-70600000D01*
X152695582Y-70632009D01*
X152500968Y-70695244D01*
X152318644Y-70788143D01*
X152274077Y-70820523D01*
X152274077Y-70820524D01*
X152953554Y-71500000D01*
X152947339Y-71500000D01*
X152845606Y-71527259D01*
X152754394Y-71579920D01*
X152679920Y-71654394D01*
X152627259Y-71745606D01*
X152600000Y-71847339D01*
X152600000Y-71853553D01*
X151920524Y-71174077D01*
X151920523Y-71174077D01*
X151888143Y-71218644D01*
X151795244Y-71400968D01*
X151732009Y-71595582D01*
X151700000Y-71797682D01*
X150899500Y-71797682D01*
X150899500Y-67091439D01*
X150879020Y-67015009D01*
X150879017Y-67015004D01*
X150839464Y-66946495D01*
X150839458Y-66946487D01*
X150201514Y-66308543D01*
X152499499Y-66308543D01*
X152537947Y-66501829D01*
X152537950Y-66501839D01*
X152613364Y-66683907D01*
X152613371Y-66683920D01*
X152722860Y-66847781D01*
X152722863Y-66847785D01*
X152862214Y-66987136D01*
X152862218Y-66987139D01*
X153026079Y-67096628D01*
X153026092Y-67096635D01*
X153158895Y-67151643D01*
X153208165Y-67172051D01*
X153208169Y-67172051D01*
X153208170Y-67172052D01*
X153401456Y-67210500D01*
X153401459Y-67210500D01*
X153598543Y-67210500D01*
X153728582Y-67184632D01*
X153791835Y-67172051D01*
X153973914Y-67096632D01*
X154137782Y-66987139D01*
X154277139Y-66847782D01*
X154386632Y-66683914D01*
X154398860Y-66654394D01*
X154429707Y-66579920D01*
X154462051Y-66501835D01*
X154500500Y-66308541D01*
X154500500Y-66111459D01*
X154500500Y-66111456D01*
X154462052Y-65918170D01*
X154462051Y-65918169D01*
X154462051Y-65918165D01*
X154421607Y-65820523D01*
X154386635Y-65736092D01*
X154386628Y-65736079D01*
X154277139Y-65572218D01*
X154277136Y-65572214D01*
X154137785Y-65432863D01*
X154137781Y-65432860D01*
X153973920Y-65323371D01*
X153973907Y-65323364D01*
X153791839Y-65247950D01*
X153791829Y-65247947D01*
X153598543Y-65209500D01*
X153598541Y-65209500D01*
X153401459Y-65209500D01*
X153401457Y-65209500D01*
X153208170Y-65247947D01*
X153208160Y-65247950D01*
X153026092Y-65323364D01*
X153026079Y-65323371D01*
X152862218Y-65432860D01*
X152862214Y-65432863D01*
X152722863Y-65572214D01*
X152722860Y-65572218D01*
X152613371Y-65736079D01*
X152613364Y-65736092D01*
X152537950Y-65918160D01*
X152537947Y-65918170D01*
X152499500Y-66111456D01*
X152499500Y-66111459D01*
X152499500Y-66308541D01*
X152499500Y-66308543D01*
X152499499Y-66308543D01*
X150201514Y-66308543D01*
X148432513Y-64539542D01*
X148432511Y-64539540D01*
X148422692Y-64533871D01*
X148363991Y-64499980D01*
X148363990Y-64499979D01*
X148338513Y-64493152D01*
X148287562Y-64479500D01*
X148287560Y-64479500D01*
X147541316Y-64479500D01*
X147474277Y-64459815D01*
X147428522Y-64407011D01*
X147426755Y-64402952D01*
X147386635Y-64306092D01*
X147386628Y-64306079D01*
X147277139Y-64142218D01*
X147277136Y-64142214D01*
X147137785Y-64002863D01*
X147137781Y-64002860D01*
X146973920Y-63893371D01*
X146973910Y-63893366D01*
X146877047Y-63853244D01*
X146822644Y-63809403D01*
X146800579Y-63743109D01*
X146800500Y-63738683D01*
X146800500Y-63288549D01*
X159799500Y-63288549D01*
X159799500Y-63511450D01*
X159799501Y-63511466D01*
X159828594Y-63732452D01*
X159828595Y-63732457D01*
X159828596Y-63732463D01*
X159860486Y-63851477D01*
X159886290Y-63947780D01*
X159886293Y-63947790D01*
X159966828Y-64142218D01*
X159971595Y-64153726D01*
X160083052Y-64346774D01*
X160083057Y-64346780D01*
X160083058Y-64346782D01*
X160218751Y-64523622D01*
X160218757Y-64523629D01*
X160376370Y-64681242D01*
X160376377Y-64681248D01*
X160484874Y-64764500D01*
X160553226Y-64816948D01*
X160746274Y-64928405D01*
X160952219Y-65013710D01*
X161167537Y-65071404D01*
X161388543Y-65100500D01*
X161388550Y-65100500D01*
X161611450Y-65100500D01*
X161611457Y-65100500D01*
X161832463Y-65071404D01*
X162047781Y-65013710D01*
X162253726Y-64928405D01*
X162446774Y-64816948D01*
X162623624Y-64681247D01*
X162781247Y-64523624D01*
X162916948Y-64346774D01*
X163028405Y-64153726D01*
X163113710Y-63947781D01*
X163171404Y-63732463D01*
X163200500Y-63511457D01*
X163200500Y-63288543D01*
X163171404Y-63067537D01*
X163113710Y-62852219D01*
X163028405Y-62646274D01*
X162916948Y-62453226D01*
X162800293Y-62301197D01*
X162781248Y-62276377D01*
X162781242Y-62276370D01*
X162623629Y-62118757D01*
X162623622Y-62118751D01*
X162446782Y-61983058D01*
X162446780Y-61983057D01*
X162446774Y-61983052D01*
X162253726Y-61871595D01*
X162253722Y-61871593D01*
X162047790Y-61786293D01*
X162047783Y-61786291D01*
X162047781Y-61786290D01*
X161832463Y-61728596D01*
X161832457Y-61728595D01*
X161832452Y-61728594D01*
X161611466Y-61699501D01*
X161611463Y-61699500D01*
X161611457Y-61699500D01*
X161388543Y-61699500D01*
X161388537Y-61699500D01*
X161388533Y-61699501D01*
X161167547Y-61728594D01*
X161167540Y-61728595D01*
X161167537Y-61728596D01*
X160952219Y-61786290D01*
X160952209Y-61786293D01*
X160746277Y-61871593D01*
X160746273Y-61871595D01*
X160553226Y-61983052D01*
X160553217Y-61983058D01*
X160376377Y-62118751D01*
X160376370Y-62118757D01*
X160218757Y-62276370D01*
X160218751Y-62276377D01*
X160083058Y-62453217D01*
X160083052Y-62453226D01*
X159971595Y-62646273D01*
X159971593Y-62646277D01*
X159886293Y-62852209D01*
X159886290Y-62852219D01*
X159828597Y-63067534D01*
X159828594Y-63067547D01*
X159799501Y-63288533D01*
X159799500Y-63288549D01*
X146800500Y-63288549D01*
X146800500Y-58487682D01*
X152200000Y-58487682D01*
X152200000Y-58692317D01*
X152232009Y-58894417D01*
X152295244Y-59089031D01*
X152388141Y-59271350D01*
X152388147Y-59271359D01*
X152420523Y-59315921D01*
X152420524Y-59315922D01*
X153100000Y-58636446D01*
X153100000Y-58642661D01*
X153127259Y-58744394D01*
X153179920Y-58835606D01*
X153254394Y-58910080D01*
X153345606Y-58962741D01*
X153447339Y-58990000D01*
X153453553Y-58990000D01*
X152774076Y-59669474D01*
X152818650Y-59701859D01*
X153000968Y-59794755D01*
X153195582Y-59857990D01*
X153397683Y-59890000D01*
X153602317Y-59890000D01*
X153804417Y-59857990D01*
X153999031Y-59794755D01*
X154181349Y-59701859D01*
X154225921Y-59669474D01*
X153546447Y-58990000D01*
X153552661Y-58990000D01*
X153654394Y-58962741D01*
X153745606Y-58910080D01*
X153820080Y-58835606D01*
X153872741Y-58744394D01*
X153900000Y-58642661D01*
X153900000Y-58636448D01*
X154579474Y-59315922D01*
X154579474Y-59315921D01*
X154611859Y-59271349D01*
X154704755Y-59089031D01*
X154767990Y-58894417D01*
X154800000Y-58692317D01*
X154800000Y-58487682D01*
X154767990Y-58285582D01*
X154704755Y-58090968D01*
X154611859Y-57908650D01*
X154579474Y-57864077D01*
X154579474Y-57864076D01*
X153900000Y-58543551D01*
X153900000Y-58537339D01*
X153872741Y-58435606D01*
X153820080Y-58344394D01*
X153745606Y-58269920D01*
X153654394Y-58217259D01*
X153552661Y-58190000D01*
X153546446Y-58190000D01*
X154225922Y-57510524D01*
X154225921Y-57510523D01*
X154181359Y-57478147D01*
X154181350Y-57478141D01*
X153999031Y-57385244D01*
X153804417Y-57322009D01*
X153602317Y-57290000D01*
X153397683Y-57290000D01*
X153195582Y-57322009D01*
X153000968Y-57385244D01*
X152818644Y-57478143D01*
X152774077Y-57510523D01*
X152774077Y-57510524D01*
X153453554Y-58190000D01*
X153447339Y-58190000D01*
X153345606Y-58217259D01*
X153254394Y-58269920D01*
X153179920Y-58344394D01*
X153127259Y-58435606D01*
X153100000Y-58537339D01*
X153100000Y-58543553D01*
X152420524Y-57864077D01*
X152420523Y-57864077D01*
X152388143Y-57908644D01*
X152295244Y-58090968D01*
X152232009Y-58285582D01*
X152200000Y-58487682D01*
X146800500Y-58487682D01*
X146800500Y-53615832D01*
X146820185Y-53548793D01*
X146836814Y-53528156D01*
X147997289Y-52367680D01*
X148058610Y-52334197D01*
X148128302Y-52339181D01*
X148146962Y-52347972D01*
X148286274Y-52428405D01*
X148492219Y-52513710D01*
X148707537Y-52571404D01*
X148928543Y-52600500D01*
X148928550Y-52600500D01*
X149151450Y-52600500D01*
X149151457Y-52600500D01*
X149372463Y-52571404D01*
X149587781Y-52513710D01*
X149793726Y-52428405D01*
X149986774Y-52316948D01*
X150163624Y-52181247D01*
X150321247Y-52023624D01*
X150456948Y-51846774D01*
X150568405Y-51653726D01*
X150653710Y-51447781D01*
X150711404Y-51232463D01*
X150740500Y-51011457D01*
X150740500Y-50788543D01*
X150711404Y-50567537D01*
X150653710Y-50352219D01*
X150568405Y-50146274D01*
X150456948Y-49953226D01*
X150321247Y-49776376D01*
X150321242Y-49776370D01*
X150163629Y-49618757D01*
X150163622Y-49618751D01*
X149986782Y-49483058D01*
X149986780Y-49483057D01*
X149986774Y-49483052D01*
X149793726Y-49371595D01*
X149793722Y-49371593D01*
X149587790Y-49286293D01*
X149587783Y-49286291D01*
X149587781Y-49286290D01*
X149372463Y-49228596D01*
X149372457Y-49228595D01*
X149372452Y-49228594D01*
X149151466Y-49199501D01*
X149151463Y-49199500D01*
X149151457Y-49199500D01*
X148928543Y-49199500D01*
X148928537Y-49199500D01*
X148928533Y-49199501D01*
X148707547Y-49228594D01*
X148707540Y-49228595D01*
X148707537Y-49228596D01*
X148492219Y-49286290D01*
X148492209Y-49286293D01*
X148286277Y-49371593D01*
X148286273Y-49371595D01*
X148093226Y-49483052D01*
X148093217Y-49483058D01*
X147916377Y-49618751D01*
X147916370Y-49618757D01*
X147758757Y-49776370D01*
X147758751Y-49776377D01*
X147623058Y-49953217D01*
X147623052Y-49953226D01*
X147511595Y-50146273D01*
X147511593Y-50146277D01*
X147426293Y-50352209D01*
X147426290Y-50352219D01*
X147368597Y-50567534D01*
X147368594Y-50567547D01*
X147339501Y-50788533D01*
X147339500Y-50788549D01*
X147339500Y-51011450D01*
X147339501Y-51011466D01*
X147368594Y-51232452D01*
X147368595Y-51232457D01*
X147368596Y-51232463D01*
X147426290Y-51447780D01*
X147426293Y-51447790D01*
X147511593Y-51653722D01*
X147511598Y-51653733D01*
X147592022Y-51793030D01*
X147608495Y-51860930D01*
X147585643Y-51926957D01*
X147572316Y-51942711D01*
X146315489Y-53199540D01*
X146259541Y-53255487D01*
X146259535Y-53255495D01*
X146219982Y-53324004D01*
X146219979Y-53324009D01*
X146199500Y-53400439D01*
X146199500Y-63738683D01*
X146179815Y-63805722D01*
X146127011Y-63851477D01*
X146122953Y-63853244D01*
X146026089Y-63893366D01*
X146026079Y-63893371D01*
X145862218Y-64002860D01*
X145862214Y-64002863D01*
X145722863Y-64142214D01*
X145722860Y-64142218D01*
X145613371Y-64306079D01*
X145613364Y-64306092D01*
X145537950Y-64488160D01*
X145537947Y-64488170D01*
X145499500Y-64681456D01*
X145499500Y-64681459D01*
X145499500Y-64878541D01*
X145499500Y-64878543D01*
X145499499Y-64878543D01*
X132200500Y-64878543D01*
X132200500Y-64764500D01*
X132220185Y-64697461D01*
X132272989Y-64651706D01*
X132324500Y-64640500D01*
X139128996Y-64640500D01*
X139220040Y-64622389D01*
X139264328Y-64613580D01*
X139391734Y-64560807D01*
X139391735Y-64560807D01*
X139391766Y-64560793D01*
X139391811Y-64560775D01*
X139506543Y-64484114D01*
X142302114Y-61688543D01*
X142378775Y-61573811D01*
X142431580Y-61446329D01*
X142431580Y-61446325D01*
X142431582Y-61446322D01*
X142436934Y-61419411D01*
X142436934Y-61419409D01*
X142458500Y-61310993D01*
X142458500Y-53443519D01*
X142478185Y-53376480D01*
X142494819Y-53355838D01*
X143213838Y-52636819D01*
X143275161Y-52603334D01*
X143301519Y-52600500D01*
X145479750Y-52600500D01*
X145479751Y-52600499D01*
X145494568Y-52597552D01*
X145538229Y-52588868D01*
X145538229Y-52588867D01*
X145538231Y-52588867D01*
X145604552Y-52544552D01*
X145648867Y-52478231D01*
X145648867Y-52478229D01*
X145648868Y-52478229D01*
X145660499Y-52419752D01*
X145660500Y-52419750D01*
X145660500Y-49380249D01*
X145660499Y-49380247D01*
X145648868Y-49321770D01*
X145648867Y-49321769D01*
X145604552Y-49255447D01*
X145538230Y-49211132D01*
X145538229Y-49211131D01*
X145479752Y-49199500D01*
X145479748Y-49199500D01*
X144784500Y-49199500D01*
X144717461Y-49179815D01*
X144671706Y-49127011D01*
X144660500Y-49075500D01*
X144660500Y-46224500D01*
X144680185Y-46157461D01*
X144732989Y-46111706D01*
X144784500Y-46100500D01*
X151158481Y-46100500D01*
X151225520Y-46120185D01*
X151246162Y-46136819D01*
X160763181Y-55653838D01*
X160796666Y-55715161D01*
X160799500Y-55741519D01*
X160799500Y-56495500D01*
X160779815Y-56562539D01*
X160727011Y-56608294D01*
X160675500Y-56619500D01*
X159980247Y-56619500D01*
X159921770Y-56631131D01*
X159921769Y-56631132D01*
X159855447Y-56675447D01*
X159811132Y-56741769D01*
X159811131Y-56741770D01*
X159799500Y-56800247D01*
X159799500Y-59839752D01*
X159811131Y-59898229D01*
X159811132Y-59898230D01*
X159855447Y-59964552D01*
X159921769Y-60008867D01*
X159921770Y-60008868D01*
X159980247Y-60020499D01*
X159980250Y-60020500D01*
X159980252Y-60020500D01*
X163019750Y-60020500D01*
X163019751Y-60020499D01*
X163034568Y-60017552D01*
X163078229Y-60008868D01*
X163078229Y-60008867D01*
X163078231Y-60008867D01*
X163144552Y-59964552D01*
X163188867Y-59898231D01*
X163188867Y-59898229D01*
X163188868Y-59898229D01*
X163200499Y-59839752D01*
X163200500Y-59839750D01*
X163200500Y-59144500D01*
X163220185Y-59077461D01*
X163272989Y-59031706D01*
X163324500Y-59020500D01*
X165078481Y-59020500D01*
X165145520Y-59040185D01*
X165166162Y-59056819D01*
X166763181Y-60653838D01*
X166796666Y-60715161D01*
X166799500Y-60741519D01*
X166799500Y-69058481D01*
X166779815Y-69125520D01*
X166763181Y-69146162D01*
X164286162Y-71623181D01*
X164224839Y-71656666D01*
X164198481Y-71659500D01*
X163324500Y-71659500D01*
X163257461Y-71639815D01*
X163211706Y-71587011D01*
X163200500Y-71535500D01*
X163200500Y-70840249D01*
X163200499Y-70840247D01*
X163188868Y-70781770D01*
X163188867Y-70781768D01*
X163144552Y-70715447D01*
X163078230Y-70671132D01*
X163078229Y-70671131D01*
X163019752Y-70659500D01*
X163019748Y-70659500D01*
X159980252Y-70659500D01*
X159980247Y-70659500D01*
X159921770Y-70671131D01*
X159921769Y-70671132D01*
X159855447Y-70715447D01*
X159811133Y-70781768D01*
X159811131Y-70781770D01*
X159799500Y-70840247D01*
X159799500Y-73879752D01*
X159811131Y-73938229D01*
X159811132Y-73938230D01*
X159855447Y-74004552D01*
X159921769Y-74048867D01*
X159921770Y-74048868D01*
X159980247Y-74060499D01*
X159980250Y-74060500D01*
X159980252Y-74060500D01*
X163019750Y-74060500D01*
X163019751Y-74060499D01*
X163034568Y-74057552D01*
X163078229Y-74048868D01*
X163078229Y-74048867D01*
X163078231Y-74048867D01*
X163144552Y-74004552D01*
X163188867Y-73938231D01*
X163188867Y-73938229D01*
X163188868Y-73938229D01*
X163200499Y-73879752D01*
X163200500Y-73879750D01*
X163200500Y-73184500D01*
X163220185Y-73117461D01*
X163272989Y-73071706D01*
X163324500Y-73060500D01*
X164608996Y-73060500D01*
X164700040Y-73042389D01*
X164744328Y-73033580D01*
X164808069Y-73007177D01*
X164871807Y-72980777D01*
X164871808Y-72980776D01*
X164871811Y-72980775D01*
X164986543Y-72904114D01*
X168044114Y-69846543D01*
X168120775Y-69731811D01*
X168173580Y-69604329D01*
X168180609Y-69568993D01*
X168200500Y-69468993D01*
X168200500Y-60331007D01*
X168200500Y-60331004D01*
X168173581Y-60195677D01*
X168173580Y-60195676D01*
X168173580Y-60195672D01*
X168161551Y-60166632D01*
X168120775Y-60068189D01*
X168044114Y-59953457D01*
X168044112Y-59953454D01*
X165866545Y-57775887D01*
X165751807Y-57699222D01*
X165624332Y-57646421D01*
X165624322Y-57646418D01*
X165488996Y-57619500D01*
X165488994Y-57619500D01*
X165488993Y-57619500D01*
X163324500Y-57619500D01*
X163257461Y-57599815D01*
X163211706Y-57547011D01*
X163200500Y-57495500D01*
X163200500Y-56800249D01*
X163200499Y-56800247D01*
X163188868Y-56741770D01*
X163188867Y-56741769D01*
X163144552Y-56675447D01*
X163078230Y-56631132D01*
X163078229Y-56631131D01*
X163019752Y-56619500D01*
X163019748Y-56619500D01*
X162324500Y-56619500D01*
X162257461Y-56599815D01*
X162211706Y-56547011D01*
X162200500Y-56495500D01*
X162200500Y-55331004D01*
X162173581Y-55195677D01*
X162173580Y-55195676D01*
X162173580Y-55195672D01*
X162144659Y-55125850D01*
X162120777Y-55068192D01*
X162044112Y-54953454D01*
X152154982Y-45064324D01*
X152121497Y-45003001D01*
X152126481Y-44933309D01*
X152168353Y-44877376D01*
X152233817Y-44852959D01*
X152274751Y-44856867D01*
X152839601Y-45008212D01*
X152844395Y-45009600D01*
X153777996Y-45300509D01*
X153782717Y-45302086D01*
X154703814Y-45630339D01*
X154708444Y-45632094D01*
X155555390Y-45972946D01*
X155615627Y-45997188D01*
X155620221Y-45999146D01*
X156511885Y-46400434D01*
X156516397Y-46402574D01*
X156938698Y-46613469D01*
X157391250Y-46839472D01*
X157395647Y-46841779D01*
X158252188Y-47313544D01*
X158256482Y-47316023D01*
X159093335Y-47821893D01*
X159097555Y-47824562D01*
X159913313Y-48363686D01*
X159917419Y-48366519D01*
X160710856Y-48938086D01*
X160714819Y-48941063D01*
X161116123Y-49255448D01*
X161484595Y-49544112D01*
X161488463Y-49547270D01*
X162233322Y-50180814D01*
X162237060Y-50184126D01*
X162955781Y-50847124D01*
X162959383Y-50850583D01*
X163650849Y-51542006D01*
X163654308Y-51545607D01*
X164317364Y-52264300D01*
X164320676Y-52268038D01*
X164954266Y-53012857D01*
X164957424Y-53016725D01*
X165426829Y-53615832D01*
X165560500Y-53786437D01*
X165563500Y-53790429D01*
X166135101Y-54583807D01*
X166137938Y-54587917D01*
X166677130Y-55403669D01*
X166679799Y-55407890D01*
X167185699Y-56244673D01*
X167188196Y-56248997D01*
X167660005Y-57105492D01*
X167662326Y-57109914D01*
X168099263Y-57984705D01*
X168101404Y-57989217D01*
X168502756Y-58880877D01*
X168504714Y-58885471D01*
X168869849Y-59792590D01*
X168871619Y-59797258D01*
X169093206Y-60418922D01*
X169199928Y-60718330D01*
X169201510Y-60723067D01*
X169492473Y-61656634D01*
X169493862Y-61661430D01*
X169746995Y-62605936D01*
X169748179Y-62610739D01*
X169951087Y-63511450D01*
X169963081Y-63564690D01*
X169964080Y-63569582D01*
X170043507Y-64002860D01*
X170138971Y-64523629D01*
X170140400Y-64531421D01*
X170141201Y-64536351D01*
X170278644Y-65504479D01*
X170279246Y-65509436D01*
X170377598Y-66482318D01*
X170378000Y-66487296D01*
X170437098Y-67463327D01*
X170437300Y-67468316D01*
X170457051Y-68445980D01*
X170457051Y-68450974D01*
X170437423Y-69428614D01*
X170437222Y-69433604D01*
X170378246Y-70409647D01*
X170377845Y-70414624D01*
X170279614Y-71387536D01*
X170279012Y-71392494D01*
X170141688Y-72360642D01*
X170140887Y-72365571D01*
X169964698Y-73327386D01*
X169963700Y-73332279D01*
X169748918Y-74286257D01*
X169747723Y-74291106D01*
X169494710Y-75235638D01*
X169493321Y-75240435D01*
X169202478Y-76174029D01*
X169200897Y-76178765D01*
X168872710Y-77099862D01*
X168870940Y-77104532D01*
X168505917Y-78011706D01*
X168503960Y-78016300D01*
X168102709Y-78908031D01*
X168100568Y-78912543D01*
X167663751Y-79787370D01*
X167661431Y-79791792D01*
X167189725Y-80648354D01*
X167187228Y-80652679D01*
X166681438Y-81489518D01*
X166678770Y-81493739D01*
X166139667Y-82309576D01*
X166136830Y-82313686D01*
X165565341Y-83107120D01*
X165562342Y-83111112D01*
X164959359Y-83880904D01*
X164956201Y-83884773D01*
X164322695Y-84629683D01*
X164319383Y-84633421D01*
X163656429Y-85352183D01*
X163652970Y-85355785D01*
X162961603Y-86047282D01*
X162958002Y-86050742D01*
X162239350Y-86713844D01*
X162235613Y-86717156D01*
X161510383Y-87334159D01*
X161509873Y-87334590D01*
X161499291Y-87343494D01*
X161495653Y-87344998D01*
X161485688Y-87354942D01*
X161481660Y-87358332D01*
X161481435Y-87358430D01*
X161480258Y-87359494D01*
X161468074Y-87369444D01*
X161468072Y-87369447D01*
X161459796Y-87391271D01*
X161459797Y-87391272D01*
X161459100Y-87393110D01*
X161452018Y-87410163D01*
X161452016Y-87411796D01*
X161448981Y-87419802D01*
X161448981Y-87419807D01*
X161450372Y-87428358D01*
X161451980Y-87448385D01*
X161399541Y-140356997D01*
X161399541Y-140357019D01*
X161399522Y-140373031D01*
X161399500Y-140373071D01*
X161399500Y-140391810D01*
X161399500Y-140392017D01*
X161399487Y-140392058D01*
X161398439Y-140408059D01*
X161388017Y-140487215D01*
X161379639Y-140518480D01*
X161352225Y-140584664D01*
X161336039Y-140612699D01*
X161292425Y-140669537D01*
X161269537Y-140692425D01*
X161212699Y-140736039D01*
X161184664Y-140752225D01*
X161118480Y-140779639D01*
X161087215Y-140788017D01*
X161024008Y-140796339D01*
X161008057Y-140798439D01*
X160991873Y-140799500D01*
X131008127Y-140799500D01*
X130991942Y-140798439D01*
X130972563Y-140795887D01*
X130912784Y-140788017D01*
X130881519Y-140779639D01*
X130815335Y-140752225D01*
X130787300Y-140736039D01*
X130730462Y-140692425D01*
X130707574Y-140669537D01*
X130663960Y-140612699D01*
X130647774Y-140584664D01*
X130620360Y-140518480D01*
X130611982Y-140487213D01*
X130601569Y-140408118D01*
X130600508Y-140391810D01*
X130600527Y-140373025D01*
X130652992Y-87438417D01*
X130656019Y-87419805D01*
X130653018Y-87411890D01*
X130653020Y-87410362D01*
X130646624Y-87394880D01*
X130645313Y-87391570D01*
X130636926Y-87369446D01*
X130624871Y-87359601D01*
X130623522Y-87358482D01*
X130619388Y-87355004D01*
X130609513Y-87345109D01*
X130605789Y-87343562D01*
X130595079Y-87334551D01*
X130595018Y-87334459D01*
X130594560Y-87334113D01*
X130484480Y-87240460D01*
X129869376Y-86717147D01*
X129865649Y-86713844D01*
X129850103Y-86699500D01*
X129146989Y-86050734D01*
X129143396Y-86047282D01*
X129135677Y-86039562D01*
X128465793Y-85369552D01*
X128452029Y-85355785D01*
X128448570Y-85352183D01*
X127990794Y-84855871D01*
X127785607Y-84633411D01*
X127782304Y-84629683D01*
X127653701Y-84478465D01*
X127148790Y-83884764D01*
X127145640Y-83880904D01*
X126851386Y-83505247D01*
X138624500Y-83505247D01*
X138624500Y-85244752D01*
X138636131Y-85303229D01*
X138636132Y-85303230D01*
X138680447Y-85369552D01*
X138746769Y-85413867D01*
X138746770Y-85413868D01*
X138805247Y-85425499D01*
X138805250Y-85425500D01*
X138805252Y-85425500D01*
X140544750Y-85425500D01*
X140544751Y-85425499D01*
X140559568Y-85422552D01*
X140603229Y-85413868D01*
X140603229Y-85413867D01*
X140603231Y-85413867D01*
X140669552Y-85369552D01*
X140713867Y-85303231D01*
X140713867Y-85303229D01*
X140713868Y-85303229D01*
X140725499Y-85244752D01*
X140725500Y-85244750D01*
X140725500Y-83505249D01*
X140725499Y-83505247D01*
X140713868Y-83446770D01*
X140713867Y-83446769D01*
X140669552Y-83380447D01*
X140603230Y-83336132D01*
X140603229Y-83336131D01*
X140544752Y-83324500D01*
X140544748Y-83324500D01*
X138805252Y-83324500D01*
X138805247Y-83324500D01*
X138746770Y-83336131D01*
X138746769Y-83336132D01*
X138680447Y-83380447D01*
X138636132Y-83446769D01*
X138636131Y-83446770D01*
X138624500Y-83505247D01*
X126851386Y-83505247D01*
X126542655Y-83111109D01*
X126539658Y-83107120D01*
X126512057Y-83068800D01*
X125968158Y-82313670D01*
X125965343Y-82309593D01*
X125426217Y-81493721D01*
X125423573Y-81489537D01*
X124917761Y-80652662D01*
X124915274Y-80648354D01*
X124443557Y-79791772D01*
X124441258Y-79787390D01*
X124004422Y-78912524D01*
X124002290Y-78908031D01*
X123990675Y-78882218D01*
X123601030Y-78016280D01*
X123599091Y-78011727D01*
X123234054Y-77104520D01*
X123232289Y-77099862D01*
X123147456Y-76861769D01*
X122904099Y-76178758D01*
X122902521Y-76174029D01*
X122897761Y-76158751D01*
X122611677Y-75240431D01*
X122610289Y-75235638D01*
X122573549Y-75098481D01*
X122357270Y-74291085D01*
X122356081Y-74286257D01*
X122317236Y-74113722D01*
X122141293Y-73332254D01*
X122140306Y-73327411D01*
X121964110Y-72365562D01*
X121963311Y-72360642D01*
X121961424Y-72347339D01*
X121825982Y-71392456D01*
X121825389Y-71387575D01*
X121727151Y-70414590D01*
X121726755Y-70409681D01*
X121667775Y-69433557D01*
X121667577Y-69428661D01*
X121647948Y-68450960D01*
X121647948Y-68445980D01*
X121667700Y-67468271D01*
X121667899Y-67463372D01*
X121727002Y-66487255D01*
X121727397Y-66482357D01*
X121825755Y-65509412D01*
X121826351Y-65504504D01*
X121963805Y-64536306D01*
X121964590Y-64531474D01*
X122140923Y-63569560D01*
X122141905Y-63564750D01*
X122356830Y-62610692D01*
X122357992Y-62605983D01*
X122611148Y-61661388D01*
X122612514Y-61656674D01*
X122903506Y-60723014D01*
X122905053Y-60718383D01*
X123233395Y-59797214D01*
X123235132Y-59792634D01*
X123600291Y-58885454D01*
X123602243Y-58880877D01*
X123661806Y-58748549D01*
X128799500Y-58748549D01*
X128799500Y-58971450D01*
X128799501Y-58971466D01*
X128828594Y-59192452D01*
X128828595Y-59192457D01*
X128828596Y-59192463D01*
X128861677Y-59315922D01*
X128886290Y-59407780D01*
X128886293Y-59407790D01*
X128971593Y-59613722D01*
X128971595Y-59613726D01*
X129083052Y-59806774D01*
X129083057Y-59806780D01*
X129083058Y-59806782D01*
X129218751Y-59983622D01*
X129218757Y-59983629D01*
X129376370Y-60141242D01*
X129376377Y-60141248D01*
X129409462Y-60166635D01*
X129553226Y-60276948D01*
X129746274Y-60388405D01*
X129952219Y-60473710D01*
X130167537Y-60531404D01*
X130388543Y-60560500D01*
X130388550Y-60560500D01*
X130611450Y-60560500D01*
X130611457Y-60560500D01*
X130832463Y-60531404D01*
X131047781Y-60473710D01*
X131253726Y-60388405D01*
X131446774Y-60276948D01*
X131623624Y-60141247D01*
X131781247Y-59983624D01*
X131916948Y-59806774D01*
X132028405Y-59613726D01*
X132113710Y-59407781D01*
X132121544Y-59378543D01*
X138499499Y-59378543D01*
X138537947Y-59571829D01*
X138537950Y-59571839D01*
X138613364Y-59753907D01*
X138613371Y-59753920D01*
X138722860Y-59917781D01*
X138722863Y-59917785D01*
X138862214Y-60057136D01*
X138862218Y-60057139D01*
X139026079Y-60166628D01*
X139026092Y-60166635D01*
X139096207Y-60195677D01*
X139208165Y-60242051D01*
X139208169Y-60242051D01*
X139208170Y-60242052D01*
X139401456Y-60280500D01*
X139401459Y-60280500D01*
X139598543Y-60280500D01*
X139728582Y-60254632D01*
X139791835Y-60242051D01*
X139932655Y-60183721D01*
X139973907Y-60166635D01*
X139973907Y-60166634D01*
X139973914Y-60166632D01*
X140137782Y-60057139D01*
X140277139Y-59917782D01*
X140386632Y-59753914D01*
X140462051Y-59571835D01*
X140500500Y-59378541D01*
X140500500Y-59181459D01*
X140500500Y-59181456D01*
X140462052Y-58988170D01*
X140462051Y-58988169D01*
X140462051Y-58988165D01*
X140455130Y-58971457D01*
X140386635Y-58806092D01*
X140386628Y-58806079D01*
X140277139Y-58642218D01*
X140277136Y-58642214D01*
X140137785Y-58502863D01*
X140137781Y-58502860D01*
X139973920Y-58393371D01*
X139973907Y-58393364D01*
X139791839Y-58317950D01*
X139791829Y-58317947D01*
X139598543Y-58279500D01*
X139598541Y-58279500D01*
X139401459Y-58279500D01*
X139401457Y-58279500D01*
X139208170Y-58317947D01*
X139208160Y-58317950D01*
X139026092Y-58393364D01*
X139026079Y-58393371D01*
X138862218Y-58502860D01*
X138862214Y-58502863D01*
X138722863Y-58642214D01*
X138722860Y-58642218D01*
X138613371Y-58806079D01*
X138613364Y-58806092D01*
X138537950Y-58988160D01*
X138537947Y-58988170D01*
X138499500Y-59181456D01*
X138499500Y-59181459D01*
X138499500Y-59378541D01*
X138499500Y-59378543D01*
X138499499Y-59378543D01*
X132121544Y-59378543D01*
X132171404Y-59192463D01*
X132200500Y-58971457D01*
X132200500Y-58748543D01*
X132171404Y-58527537D01*
X132113710Y-58312219D01*
X132028405Y-58106274D01*
X131916948Y-57913226D01*
X131781247Y-57736376D01*
X131781242Y-57736370D01*
X131623629Y-57578757D01*
X131623622Y-57578751D01*
X131446782Y-57443058D01*
X131446780Y-57443057D01*
X131446774Y-57443052D01*
X131253726Y-57331595D01*
X131253722Y-57331593D01*
X131047790Y-57246293D01*
X131047783Y-57246291D01*
X131047781Y-57246290D01*
X130832463Y-57188596D01*
X130832457Y-57188595D01*
X130832452Y-57188594D01*
X130611466Y-57159501D01*
X130611463Y-57159500D01*
X130611457Y-57159500D01*
X130388543Y-57159500D01*
X130388537Y-57159500D01*
X130388533Y-57159501D01*
X130167547Y-57188594D01*
X130167540Y-57188595D01*
X130167537Y-57188596D01*
X129952219Y-57246290D01*
X129952209Y-57246293D01*
X129746277Y-57331593D01*
X129746273Y-57331595D01*
X129553226Y-57443052D01*
X129553217Y-57443058D01*
X129376377Y-57578751D01*
X129376370Y-57578757D01*
X129218757Y-57736370D01*
X129218751Y-57736377D01*
X129083058Y-57913217D01*
X129083052Y-57913226D01*
X128971595Y-58106273D01*
X128971593Y-58106277D01*
X128886293Y-58312209D01*
X128886290Y-58312219D01*
X128835208Y-58502863D01*
X128828597Y-58527534D01*
X128828594Y-58527547D01*
X128799501Y-58748533D01*
X128799500Y-58748549D01*
X123661806Y-58748549D01*
X124003619Y-57989164D01*
X124005710Y-57984758D01*
X124442676Y-57109907D01*
X124444994Y-57105492D01*
X124613139Y-56800252D01*
X124916815Y-56248975D01*
X124919287Y-56244695D01*
X125425204Y-55407883D01*
X125427869Y-55403669D01*
X125565350Y-55195672D01*
X125967089Y-54587875D01*
X125969870Y-54583847D01*
X126541531Y-53790385D01*
X126544466Y-53786480D01*
X127147592Y-53016703D01*
X127150716Y-53012877D01*
X127784337Y-52268021D01*
X127787619Y-52264317D01*
X128450717Y-51545579D01*
X128454123Y-51542034D01*
X129145638Y-50850561D01*
X129149194Y-50847146D01*
X129867965Y-50184102D01*
X129871651Y-50180836D01*
X130616553Y-49547255D01*
X130620385Y-49544126D01*
X131390204Y-48941045D01*
X131394118Y-48938104D01*
X132187603Y-48366503D01*
X132191659Y-48363704D01*
X133007475Y-47824542D01*
X133011633Y-47821912D01*
X133848539Y-47316010D01*
X133852789Y-47313556D01*
X134709373Y-46841768D01*
X134713728Y-46839482D01*
X135588608Y-46402570D01*
X135593114Y-46400434D01*
X136484794Y-45999138D01*
X136489356Y-45997194D01*
X137396571Y-45632088D01*
X137401168Y-45630345D01*
X138322297Y-45302081D01*
X138326988Y-45300514D01*
X139260617Y-45009596D01*
X139265383Y-45008216D01*
X140209913Y-44755141D01*
X140214758Y-44753947D01*
X140336982Y-44726421D01*
X141168729Y-44539104D01*
X141173574Y-44538114D01*
X142135435Y-44361854D01*
X142140342Y-44361056D01*
X143108545Y-44223664D01*
X143113399Y-44223075D01*
X144086365Y-44124776D01*
X144091278Y-44124379D01*
X145067407Y-44065337D01*
X145072330Y-44065139D01*
X146050017Y-44045448D01*
X146054983Y-44045448D01*
X147032667Y-44065139D01*
G37*
%TD.AperFunction*%
%TA.AperFunction,Conductor*%
G36*
X143391998Y-84648702D02*
G01*
X143439609Y-84699839D01*
X143446656Y-84717026D01*
X143503904Y-84893216D01*
X143600379Y-85082557D01*
X143725272Y-85254459D01*
X143725276Y-85254464D01*
X143875535Y-85404723D01*
X143875540Y-85404727D01*
X144047442Y-85529620D01*
X144236782Y-85626095D01*
X144438871Y-85691757D01*
X144505000Y-85702231D01*
X144505000Y-84808012D01*
X144562007Y-84840925D01*
X144689174Y-84875000D01*
X144820826Y-84875000D01*
X144947993Y-84840925D01*
X145005000Y-84808012D01*
X145005000Y-85702230D01*
X145071126Y-85691757D01*
X145071129Y-85691757D01*
X145273217Y-85626095D01*
X145462557Y-85529620D01*
X145634459Y-85404727D01*
X145634464Y-85404723D01*
X145784723Y-85254464D01*
X145784727Y-85254459D01*
X145909620Y-85082557D01*
X146006095Y-84893217D01*
X146063343Y-84717026D01*
X146102780Y-84659351D01*
X146167139Y-84632152D01*
X146235985Y-84644066D01*
X146287461Y-84691310D01*
X146295835Y-84707891D01*
X146350939Y-84840925D01*
X146364059Y-84872598D01*
X146407158Y-84937101D01*
X146479024Y-85044657D01*
X146625342Y-85190975D01*
X146625345Y-85190977D01*
X146797402Y-85305941D01*
X146988580Y-85385130D01*
X147129940Y-85413248D01*
X147191530Y-85425499D01*
X147191534Y-85425500D01*
X147191535Y-85425500D01*
X147398466Y-85425500D01*
X147398467Y-85425499D01*
X147601420Y-85385130D01*
X147721974Y-85335194D01*
X147791438Y-85327726D01*
X147853918Y-85359000D01*
X147857104Y-85362075D01*
X148163181Y-85668152D01*
X148196666Y-85729475D01*
X148199500Y-85755833D01*
X148199500Y-126939562D01*
X148213152Y-126990513D01*
X148219979Y-127015990D01*
X148227008Y-127028163D01*
X148227011Y-127028168D01*
X148259537Y-127084507D01*
X148259539Y-127084510D01*
X148259540Y-127084511D01*
X149915489Y-128740460D01*
X149984012Y-128780022D01*
X150060438Y-128800500D01*
X154576027Y-128800500D01*
X154604237Y-128808783D01*
X154633097Y-128814414D01*
X154637378Y-128818514D01*
X154643066Y-128820185D01*
X154662316Y-128842401D01*
X154683555Y-128862744D01*
X154684939Y-128868510D01*
X154688821Y-128872989D01*
X154693005Y-128902088D01*
X154699873Y-128930682D01*
X154697921Y-128936279D01*
X154698765Y-128942147D01*
X154686550Y-128968892D01*
X154676871Y-128996656D01*
X154671492Y-129001864D01*
X154669740Y-129005703D01*
X154652457Y-129022145D01*
X154648788Y-129025016D01*
X154562218Y-129082861D01*
X154516570Y-129128508D01*
X154510647Y-129133145D01*
X154484894Y-129143386D01*
X154460576Y-129156666D01*
X154448142Y-129158002D01*
X154445723Y-129158965D01*
X154443402Y-129158512D01*
X154434217Y-129159500D01*
X144801518Y-129159500D01*
X144734479Y-129139815D01*
X144713837Y-129123181D01*
X142951819Y-127361162D01*
X142918334Y-127299839D01*
X142915500Y-127273481D01*
X142915500Y-85211494D01*
X142935185Y-85144455D01*
X142951814Y-85123817D01*
X143030977Y-85044655D01*
X143145941Y-84872598D01*
X143214165Y-84707889D01*
X143258004Y-84653488D01*
X143324298Y-84631423D01*
X143391998Y-84648702D01*
G37*
%TD.AperFunction*%
%TD*%
M02*
