%TF.GenerationSoftware,KiCad,Pcbnew,9.0.0*%
%TF.CreationDate,2025-04-01T22:06:04-04:00*%
%TF.ProjectId,asl,61736c2e-6b69-4636-9164-5f7063625858,rev?*%
%TF.SameCoordinates,Original*%
%TF.FileFunction,Soldermask,Bot*%
%TF.FilePolarity,Negative*%
%FSLAX46Y46*%
G04 Gerber Fmt 4.6, Leading zero omitted, Abs format (unit mm)*
G04 Created by KiCad (PCBNEW 9.0.0) date 2025-04-01 22:06:04*
%MOMM*%
%LPD*%
G01*
G04 APERTURE LIST*
G04 Aperture macros list*
%AMRoundRect*
0 Rectangle with rounded corners*
0 $1 Rounding radius*
0 $2 $3 $4 $5 $6 $7 $8 $9 X,Y pos of 4 corners*
0 Add a 4 corners polygon primitive as box body*
4,1,4,$2,$3,$4,$5,$6,$7,$8,$9,$2,$3,0*
0 Add four circle primitives for the rounded corners*
1,1,$1+$1,$2,$3*
1,1,$1+$1,$4,$5*
1,1,$1+$1,$6,$7*
1,1,$1+$1,$8,$9*
0 Add four rect primitives between the rounded corners*
20,1,$1+$1,$2,$3,$4,$5,0*
20,1,$1+$1,$4,$5,$6,$7,0*
20,1,$1+$1,$6,$7,$8,$9,0*
20,1,$1+$1,$8,$9,$2,$3,0*%
G04 Aperture macros list end*
%ADD10O,1.600000X1.600000*%
%ADD11C,1.600000*%
%ADD12R,3.000000X3.000000*%
%ADD13C,3.000000*%
%ADD14RoundRect,0.250000X1.050000X0.550000X-1.050000X0.550000X-1.050000X-0.550000X1.050000X-0.550000X0*%
%ADD15O,2.600000X1.600000*%
%ADD16R,1.700000X1.700000*%
%ADD17O,1.700000X1.700000*%
G04 APERTURE END LIST*
D10*
%TO.C,R3*%
X146500000Y-64780000D03*
D11*
X146500000Y-72400000D03*
%TD*%
D12*
%TO.C,J1*%
X130500000Y-78440000D03*
D13*
X130500000Y-73360000D03*
%TD*%
D14*
%TO.C,A1*%
X155700000Y-132400000D03*
D15*
X155700000Y-129860000D03*
X155700000Y-127320000D03*
X155700000Y-124780000D03*
X155700000Y-122240000D03*
X155700000Y-119700000D03*
X155700000Y-117160000D03*
X155700000Y-114620000D03*
X155700000Y-112080000D03*
X155700000Y-109540000D03*
X155700000Y-107000000D03*
X155700000Y-104460000D03*
X155700000Y-101920000D03*
X155700000Y-99380000D03*
X155700000Y-96840000D03*
X155700000Y-94300000D03*
X135980000Y-94300000D03*
X135980000Y-96840000D03*
X135980000Y-99380000D03*
X135980000Y-101920000D03*
X135980000Y-104460000D03*
X135980000Y-107000000D03*
X135980000Y-109540000D03*
X135980000Y-112080000D03*
X135980000Y-114620000D03*
X135980000Y-117160000D03*
X135980000Y-119700000D03*
X135980000Y-122240000D03*
%TD*%
D11*
%TO.C,R1*%
X139500000Y-79400000D03*
D10*
X139500000Y-71780000D03*
%TD*%
D11*
%TO.C,R5*%
X153000000Y-71900000D03*
D10*
X153000000Y-79520000D03*
%TD*%
D11*
%TO.C,R2*%
X139500000Y-66900000D03*
D10*
X139500000Y-59280000D03*
%TD*%
D12*
%TO.C,J4*%
X161500000Y-58320000D03*
D13*
X161500000Y-63400000D03*
%TD*%
D12*
%TO.C,J2*%
X130500000Y-63940000D03*
D13*
X130500000Y-58860000D03*
%TD*%
D12*
%TO.C,J3*%
X143960000Y-50900000D03*
D13*
X149040000Y-50900000D03*
%TD*%
D16*
%TO.C,J6*%
X139675000Y-84375000D03*
D17*
X142215000Y-84375000D03*
X144755000Y-84375000D03*
X147295000Y-84375000D03*
X149835000Y-84375000D03*
X152375000Y-84375000D03*
%TD*%
D12*
%TO.C,J5*%
X161500000Y-72360000D03*
D13*
X161500000Y-77440000D03*
%TD*%
D11*
%TO.C,R4*%
X153500000Y-58590000D03*
D10*
X153500000Y-66210000D03*
%TD*%
M02*
