M48
; DRILL file {KiCad 9.0.0} date 2025-04-01T22:06:01-0400
; FORMAT={-:-/ absolute / metric / decimal}
; #@! TF.CreationDate,2025-04-01T22:06:01-04:00
; #@! TF.GenerationSoftware,Kicad,Pcbnew,9.0.0
; #@! TF.FileFunction,MixedPlating,1,2
FMAT,2
METRIC
; #@! TA.AperFunction,Plated,PTH,ComponentDrill
T1C0.800
; #@! TA.AperFunction,Plated,PTH,ComponentDrill
T2C1.000
; #@! TA.AperFunction,Plated,PTH,ComponentDrill
T3C1.520
%
G90
G05
T1
X139.5Y-59.28
X139.5Y-66.9
X139.5Y-71.78
X139.5Y-79.4
X146.5Y-64.78
X146.5Y-72.4
X153.0Y-71.9
X153.0Y-79.52
X153.5Y-58.59
X153.5Y-66.21
T2
X135.68Y-94.3
X135.68Y-96.84
X135.68Y-99.38
X135.68Y-101.92
X135.68Y-104.46
X135.68Y-107.0
X135.68Y-109.54
X135.68Y-112.08
X135.68Y-114.62
X135.68Y-117.16
X135.68Y-119.7
X135.68Y-122.24
X139.675Y-84.375
X142.215Y-84.375
X144.755Y-84.375
X147.295Y-84.375
X149.835Y-84.375
X152.375Y-84.375
X156.0Y-94.3
X156.0Y-96.84
X156.0Y-99.38
X156.0Y-101.92
X156.0Y-104.46
X156.0Y-107.0
X156.0Y-109.54
X156.0Y-112.08
X156.0Y-114.62
X156.0Y-117.16
X156.0Y-119.7
X156.0Y-122.24
X156.0Y-124.78
X156.0Y-127.32
X156.0Y-129.86
X156.0Y-132.4
T3
X130.5Y-58.86
X130.5Y-63.94
X130.5Y-73.36
X130.5Y-78.44
X143.96Y-50.9
X149.04Y-50.9
X161.5Y-58.32
X161.5Y-63.4
X161.5Y-72.36
X161.5Y-77.44
M30
